<?xml version="1.0" encoding="utf-8"?>
<!-- Generator: Adobe Illustrator 16.0.0, SVG Export Plug-In . SVG Version: 6.00 Build 0)  -->
<!DOCTYPE svg PUBLIC "-//W3C//DTD SVG 1.1//EN" "http://www.w3.org/Graphics/SVG/1.1/DTD/svg11.dtd">
<svg version="1.1" id="Layer_1" xmlns="http://www.w3.org/2000/svg" xmlns:xlink="http://www.w3.org/1999/xlink" x="0px" y="0px"
	 width="23.481px" height="62.113px" viewBox="0 0 23.481 62.113" enable-background="new 0 0 23.481 62.113" xml:space="preserve">
<g>
	<path fill="#CDABD1" d="M2.569,7.825c0,0-5.174,29.667,2.746,20c0,0,13.253-16,15.253-2c0,0,1.666-21.333-2-24s-1-1.333-1-1.333
		s-8.776,8-16.555,4.333L2.569,7.825z"/>
	<path fill="#A572A2" d="M2.569,7.825c-0.613,3.925-1.102,7.872-1.366,11.831C1.077,21.634,0.982,23.62,1.1,25.593
		c0.069,0.98,0.168,1.977,0.491,2.886c0.165,0.44,0.407,0.889,0.796,1.058c0.389,0.168,0.859-0.031,1.242-0.292
		c0.796-0.544,1.377-1.348,2.043-2.099c0.66-0.748,1.347-1.472,2.059-2.171c1.426-1.393,2.945-2.71,4.666-3.76
		c0.861-0.517,1.779-0.969,2.783-1.204c0.985-0.241,2.137-0.209,3.037,0.395c0.906,0.577,1.467,1.514,1.846,2.45
		c0.398,0.946,0.572,1.946,0.75,2.936l-0.489,0.016c0.323-4.65,0.506-9.325,0.346-13.984C20.566,9.5,20.418,7.16,19.896,4.905
		c-0.141-0.559-0.293-1.118-0.523-1.638c-0.232-0.515-0.512-1.017-0.951-1.339C17.951,1.58,17.48,1.231,17.025,0.85
		c-0.111-0.097-0.225-0.193-0.334-0.304c-0.056-0.056-0.108-0.11-0.166-0.195c-0.014-0.03-0.026-0.036-0.043-0.097
		c-0.021-0.018-0.004-0.185,0.082-0.217c0.143-0.064,0.172-0.026,0.224-0.026c0.332,0.082,0.578,0.213,0.854,0.343l0.213,0.101
		L17.677,0.61c-1.151,0.999-2.397,1.855-3.7,2.626c-0.324,0.193-0.652,0.383-0.992,0.55c-0.338,0.169-0.666,0.36-1.017,0.504
		c-0.685,0.325-1.393,0.593-2.109,0.842C9.502,5.254,9.13,5.334,8.765,5.438C8.402,5.549,8.027,5.606,7.653,5.666
		C7.279,5.722,6.908,5.812,6.527,5.812L5.392,5.867L4.259,5.783C3.878,5.781,3.515,5.649,3.144,5.582
		c-0.369-0.08-0.742-0.15-1.088-0.311L1.001,4.859l0.045-0.046L2.569,7.825z M2.569,7.825L0.983,4.841L0.942,4.763l0.086,0.032
		l1.055,0.387c0.346,0.152,0.716,0.214,1.083,0.286C3.535,5.527,3.895,5.65,4.271,5.646l1.118,0.061l1.118-0.077
		C6.881,5.62,7.246,5.526,7.613,5.463C7.98,5.397,8.348,5.334,8.705,5.216c0.357-0.109,0.721-0.194,1.072-0.322
		c0.704-0.25,1.4-0.519,2.075-0.845c0.346-0.145,0.668-0.335,1.002-0.505c0.334-0.167,0.655-0.357,0.977-0.551
		c1.279-0.769,2.518-1.633,3.633-2.615l0.035,0.255c-0.251-0.119-0.533-0.253-0.77-0.309c-0.021-0.013-0.068,0.012,0.01-0.021
		c0.107-0.127,0.023-0.152,0.059-0.121c0.023,0.036,0.072,0.089,0.119,0.136c0.098,0.097,0.208,0.19,0.316,0.282
		c0.444,0.367,0.914,0.71,1.387,1.054c0.516,0.375,0.824,0.932,1.07,1.471c0.25,0.548,0.408,1.121,0.557,1.692
		c0.549,2.301,0.711,4.651,0.831,6.989c0.103,2.341,0.104,4.684,0.058,7.023c-0.057,2.341-0.145,4.678-0.32,7.016l-0.149,1.991
		l-0.34-1.975c-0.165-0.962-0.329-1.937-0.701-2.83c-0.351-0.89-0.866-1.741-1.647-2.244c-0.771-0.528-1.775-0.573-2.701-0.355
		c-0.937,0.211-1.826,0.638-2.668,1.135c-1.683,1.01-3.195,2.303-4.617,3.672c-0.71,0.688-1.396,1.402-2.056,2.139
		c-0.653,0.724-1.26,1.559-2.12,2.14c-0.413,0.273-0.982,0.548-1.549,0.312c-0.541-0.252-0.783-0.778-0.962-1.246
		c-0.337-0.972-0.424-1.979-0.488-2.974c-0.103-1.997-0.005-3.988,0.151-5.971C1.31,15.675,1.878,11.738,2.569,7.825z"/>
</g>
<g>
	<path fill="#CDABD1" d="M0.909,40.67c0,0-1.123,7,8.102,3.668c9.226-3.334,0.667-1.384,0.667-1.384s12.262-3.95,12.577-2.282
		c0.313,1.666-1.308-15-1.308-15s-4.827-10.667-11.271,0C9.678,25.67-0.417,34.67,0.909,40.67z"/>
	<path fill="#A572A2" d="M0.909,40.67c-0.051,0.407-0.043,0.82,0.004,1.227c0.037,0.408,0.141,0.807,0.289,1.186
		c0.289,0.762,0.879,1.4,1.625,1.708c0.176,0.103,0.371,0.154,0.57,0.194c0.198,0.038,0.389,0.118,0.592,0.121
		c0.406,0.01,0.809,0.078,1.213,0.011c0.404-0.044,0.811-0.058,1.205-0.168c0.396-0.099,0.801-0.153,1.186-0.288
		c0.775-0.255,1.555-0.492,2.319-0.795c0.765-0.289,1.531-0.583,2.275-0.912c0.188-0.082,0.371-0.168,0.549-0.259
		c0.087-0.049,0.182-0.092,0.257-0.146c0.039-0.024,0.086-0.051,0.108-0.076c0.043-0.024,0.045-0.062,0.037,0
		c-0.008,0.029,0.024,0.066,0.033,0.07c-0.001,0.004,0,0.006,0.001,0.006c0.013,0-0.019-0.004-0.034-0.006
		c-0.033-0.007-0.084-0.006-0.129-0.007c-0.095,0.001-0.193,0.007-0.293,0.017c-0.199,0.02-0.4,0.049-0.602,0.08
		c-0.803,0.129-1.605,0.299-2.402,0.479l-0.086-0.314c2.256-0.722,4.527-1.39,6.829-1.957c1.153-0.278,2.312-0.541,3.498-0.699
		c0.598-0.063,1.188-0.151,1.837-0.034c0.159,0.038,0.336,0.069,0.504,0.231c0.09,0.051,0.137,0.207,0.172,0.295l0.012,0.055
		l0.004,0.009v0.003c0-0.02-0.061-0.107-0.123-0.119c-0.025-0.005-0.053-0.021-0.131-0.007c-0.073,0.015-0.139,0.095-0.146,0.14
		c-0.012,0.049-0.004,0.012-0.006,0.022v-0.007v-0.047c-0.009-0.279-0.033-0.579-0.056-0.87L20.727,25.69l0.021,0.069
		c-0.542-1.123-1.254-2.203-2.131-3.094c-0.443-0.441-0.937-0.833-1.484-1.114c-0.272-0.139-0.559-0.258-0.854-0.325
		c-0.293-0.078-0.6-0.116-0.902-0.103c-0.302,0.002-0.607,0.047-0.898,0.141c-0.297,0.073-0.578,0.21-0.854,0.349
		c-0.271,0.148-0.535,0.315-0.781,0.51c-0.257,0.177-0.477,0.408-0.715,0.611c-0.445,0.448-0.863,0.924-1.244,1.433
		c-0.384,0.506-0.729,1.042-1.07,1.58L9.799,25.77l-0.016,0.015c-1.103,1-2.152,2.069-3.156,3.173
		c-0.495,0.559-0.987,1.12-1.455,1.703c-0.469,0.58-0.928,1.169-1.361,1.776L3.17,33.354l-0.586,0.952
		c-0.207,0.312-0.356,0.656-0.535,0.982c-0.18,0.328-0.342,0.664-0.471,1.014c-0.127,0.351-0.311,0.683-0.387,1.05
		c-0.088,0.36-0.215,0.716-0.271,1.084c-0.036,0.37-0.088,0.741-0.112,1.114L0.909,40.67z M0.909,40.67L0.78,39.553
		c0.015-0.373,0.058-0.748,0.086-1.123c0.048-0.371,0.166-0.73,0.247-1.099c0.069-0.373,0.244-0.709,0.364-1.065
		c0.121-0.357,0.277-0.699,0.449-1.033c0.172-0.334,0.314-0.686,0.516-1.003l0.567-0.976l0.622-0.939
		c0.424-0.621,0.867-1.229,1.34-1.813c0.465-0.59,0.955-1.159,1.449-1.725c1.002-1.121,2.044-2.201,3.152-3.223l-0.029,0.036
		c0.342-0.548,0.688-1.095,1.075-1.615c0.384-0.522,0.81-1.016,1.266-1.483c0.247-0.214,0.474-0.453,0.742-0.644
		c0.257-0.206,0.533-0.387,0.824-0.547c0.294-0.152,0.595-0.301,0.921-0.386c0.316-0.104,0.656-0.158,0.992-0.164
		c0.338-0.018,0.68,0.022,1.004,0.105c0.33,0.072,0.645,0.2,0.941,0.349c0.599,0.3,1.125,0.714,1.594,1.174
		c0.932,0.934,1.662,2.021,2.244,3.202l0.015,0.029l0.005,0.041c0.48,4.705,0.947,9.408,1.297,14.13
		c0.02,0.298,0.041,0.587,0.049,0.897l-0.001,0.065l-0.003,0.048c-0.004,0.021,0.004-0.007-0.01,0.051
		c-0.01,0.049-0.076,0.133-0.152,0.151c-0.078,0.021-0.109,0.007-0.138-0.004c-0.065-0.019-0.132-0.116-0.136-0.144l-0.008-0.023
		l-0.012-0.044l-0.011-0.054c-0.033-0.037-0.002-0.053-0.05-0.077c-0.04-0.054-0.172-0.099-0.295-0.122
		c-0.518-0.104-1.122-0.034-1.692,0.027c-1.157,0.144-2.312,0.395-3.46,0.662c-2.292,0.545-4.566,1.194-6.819,1.896L9.64,42.797
		c0.806-0.177,1.61-0.34,2.428-0.465c0.205-0.029,0.41-0.059,0.621-0.076c0.104-0.01,0.211-0.016,0.32-0.016
		c0.059,0.002,0.109,0,0.178,0.014c0.035,0.006,0.057,0.002,0.112,0.031c0.039,0.018,0.111,0.04,0.134,0.182
		c-0.021,0.159-0.105,0.198-0.142,0.233c-0.051,0.046-0.097,0.067-0.144,0.099c-0.094,0.063-0.188,0.104-0.28,0.156
		c-0.188,0.094-0.377,0.18-0.566,0.262c-1.527,0.633-3.055,1.217-4.647,1.674c-0.394,0.125-0.809,0.173-1.212,0.264
		c-0.401,0.102-0.82,0.107-1.232,0.143c-0.412,0.059-0.828-0.021-1.242-0.043c-0.208-0.008-0.405-0.095-0.607-0.139
		C3.159,45.068,2.959,45.01,2.778,44.9c-0.766-0.337-1.356-1.016-1.632-1.794c-0.141-0.388-0.235-0.793-0.263-1.204
		C0.846,41.49,0.849,41.076,0.909,40.67z"/>
</g>
<g>
	<path fill="#CDABD1" d="M1.014,46.158c0,0,2.556,21,13.556,13.667c0,0,9.555-1,8.619-10.667c0,0-1.738-10.659-11.812-5.941
		C11.376,43.217,2.124,48.158,1.014,46.158z"/>
	<path fill="#A572A2" d="M1.014,46.158c0.301,1.96,0.753,3.896,1.339,5.786c0.297,0.942,0.627,1.877,1.014,2.784
		c0.385,0.908,0.82,1.794,1.333,2.632c0.257,0.419,0.538,0.819,0.837,1.206c0.311,0.377,0.632,0.744,0.992,1.068
		c0.359,0.323,0.743,0.621,1.163,0.854c0.415,0.238,0.86,0.425,1.324,0.529c0.228,0.078,0.466,0.09,0.702,0.115
		c0.236,0.039,0.474,0.029,0.712,0.015c0.239,0,0.476-0.022,0.71-0.08c0.233-0.052,0.475-0.07,0.699-0.162l0.686-0.229l0.658-0.311
		c0.442-0.193,0.84-0.488,1.262-0.729l0.053-0.029l0.049-0.008c0.842-0.118,1.694-0.352,2.5-0.66
		c0.812-0.303,1.585-0.705,2.292-1.196c0.354-0.246,0.699-0.503,1.004-0.808c0.334-0.273,0.597-0.614,0.873-0.941
		c0.296-0.312,0.47-0.714,0.712-1.066c0.215-0.369,0.352-0.778,0.533-1.166c0.145-0.403,0.227-0.828,0.344-1.241
		c0.098-0.418,0.105-0.855,0.164-1.282c0.074-0.427,0.012-0.864,0.012-1.297l-0.02-0.65c0-0.184-0.07-0.414-0.113-0.615
		c-0.213-0.838-0.504-1.662-0.891-2.436c-0.406-0.757-0.85-1.514-1.465-2.113c-0.271-0.337-0.637-0.568-0.963-0.842
		c-0.353-0.236-0.736-0.432-1.117-0.615c-0.797-0.303-1.646-0.468-2.508-0.447c-0.43,0.041-0.866,0.022-1.291,0.115l-1.271,0.295
		c-0.416,0.123-0.815,0.306-1.227,0.455c-0.416,0.15-0.81,0.312-1.2,0.527c-1.583,0.792-3.202,1.516-4.866,2.124
		c-0.832,0.302-1.678,0.574-2.545,0.76c-0.434,0.087-0.875,0.155-1.32,0.15C1.755,46.65,1.249,46.561,1.014,46.158z M1.014,46.158
		c0.247,0.393,0.746,0.464,1.172,0.454c0.439-0.008,0.874-0.088,1.303-0.188c0.854-0.209,1.687-0.504,2.506-0.83
		c1.636-0.655,3.226-1.424,4.792-2.231c0.38-0.217,0.801-0.401,1.213-0.558c0.416-0.161,0.82-0.354,1.248-0.486l1.305-0.327
		c0.438-0.103,0.896-0.092,1.344-0.144c0.904-0.035,1.814,0.123,2.674,0.435c0.412,0.188,0.824,0.401,1.203,0.651
		c0.353,0.289,0.742,0.539,1.031,0.892c0.657,0.636,1.127,1.424,1.555,2.213c0.408,0.806,0.713,1.655,0.939,2.526
		c0.049,0.229,0.118,0.426,0.129,0.685l0.024,0.675c0.003,0.448,0.067,0.898-0.007,1.348c-0.057,0.447-0.064,0.902-0.164,1.344
		c-0.12,0.438-0.207,0.885-0.355,1.312c-0.189,0.412-0.334,0.849-0.562,1.242c-0.257,0.375-0.449,0.797-0.763,1.129
		c-0.295,0.347-0.578,0.705-0.931,0.992c-0.325,0.32-0.688,0.59-1.062,0.846c-0.745,0.512-1.555,0.926-2.398,1.234
		c-0.846,0.317-1.707,0.553-2.617,0.676l0.102-0.037c-0.44,0.248-0.85,0.547-1.316,0.75l-0.689,0.32l-0.728,0.239
		c-0.237,0.094-0.498,0.114-0.748,0.168c-0.25,0.06-0.506,0.082-0.765,0.082c-0.257,0.015-0.515,0.022-0.771-0.022
		c-0.256-0.031-0.515-0.053-0.76-0.138c-0.5-0.122-0.979-0.332-1.416-0.593c-0.443-0.256-0.844-0.576-1.214-0.921
		c-0.372-0.347-0.698-0.731-1.012-1.126c-0.302-0.404-0.583-0.819-0.838-1.252c-1.016-1.729-1.72-3.61-2.253-5.524
		C1.651,50.079,1.257,48.127,1.014,46.158z"/>
</g>
</svg>
