<?xml version="1.0" encoding="utf-8"?>
<!-- Generator: Adobe Illustrator 16.0.0, SVG Export Plug-In . SVG Version: 6.00 Build 0)  -->
<!DOCTYPE svg PUBLIC "-//W3C//DTD SVG 1.1//EN" "http://www.w3.org/Graphics/SVG/1.1/DTD/svg11.dtd">
<svg version="1.1" id="Layer_1" xmlns="http://www.w3.org/2000/svg" xmlns:xlink="http://www.w3.org/1999/xlink" x="0px" y="0px"
	 width="266.129px" height="494.39px" viewBox="0 0 266.129 494.39" enable-background="new 0 0 266.129 494.39"
	 xml:space="preserve">
<g id="Layer_1_1_">
	<g id="NHpqbD_1_" opacity="0.2">
		
			<image overflow="visible" enable-background="new    " width="593" height="526" id="NHpqbD_2_" xlink:href="E70EB8551B3FB00.jpeg"  transform="matrix(0.9983 0 0 0.9981 296.8037 -47.3301)">
		</image>
	</g>
</g>
<g id="Layer_2">
	<g>
		<path fill="#E7D9EB" stroke="#282527" stroke-miterlimit="10" d="M265.018,249.505c-2.668-2.334-6.668-8.668-6.668-8.668
			c-1.666-5.666-11-8.332-11-8.332c-6.332-2.334-18.666-33.334-18.666-33.334c-5.332-26.667-19-38.333-19-38.333
			c0.334-6.667-8.553-30.667-8.553-30.667l-0.113-1.667c2.332-47.667-31.666-42-34-42c-2.332,0-14.332-9.667-14.332-9.667
			c-7-6.333-2.617-24.166-2.617-24.166c-1.568,3.695-4.564,6.336-7.573,8.173c3.468-2.358,7.05-6.18,8.897-12.341l1.777-5.333
			c0,0,10.312-17.067,0-12.089v-6.044c0,0-1.423-24.889-20.267-24.534c0,0-25.244-0.355-18.488,32c0,0-10.121-4.622-1.149,11.733
			c0,0,4.349,17.777,20.349,20.267c-11.518-1.042-17.553-11.832-17.553-11.832s4.383,17.833-2.617,24.166c0,0-12,9.667-14.333,9.667
			s-36.333-5.667-34,42l-0.114,1.667c0,0-8.886,24-8.553,30.667c0,0-13.667,11.666-19,38.333c0,0-12.333,31-18.667,33.333
			c0,0-9.333,2.668-11,8.334c0,0-4,6.334-6.667,8.667c-2.667,2.332,4,5.093,8.333,0.045c0,0,2.667-1.045,2,0.955
			s-9,15.666-5.667,18.666c0,0,2.667-1,7.333-11c0,0,6-6.666,4.333,0.334s-8,14.666-3.667,17.666c0,0,3,0.668,6-10.666
			c0,0,4-13.334,4.333-6.668c0,0-1.333,7.668-1.333,9.002c0,1.332-3,10-1,12c0,0,4-2.334,6-11.334c0,0,1-8.002,1.667-6.334
			c0.667,1.666,0.667,11.334,2,12.334c0,0,1.667,1,2.667-6.666c0,0,1-14.336,1.333-15.668c0.333-1.334,3.667-8.666,4-18.333
			c0,0,9-23,29.334-39.333c0,0,11-21.499,12.333-28.25s0.667-1.75,0.667-1.75s3.999-15.667,5.666-21.333
			c0,0,8.667,15.667,7.667,36.667c0,0-4,27.667-4,32.667c0,0-17.667,55.667-6,108.667c0,0-4,49-8,58.668
			c0,0-4.001,37.666,4.333,59.666c0,0-0.667,10.666-2,13s-3.667,12-4,15s-9.334,12-11,13.666c-1.667,1.668-2.667,7,1.334,6.334
			c4-0.666,2.999,3,4.666,3s5.333,4.334,7,2.666c1.667-1.666,3,1.764,6,0.383c3-1.383,9.333-7.381,10-10.715
			s3.334-22.002,1.334-32.334c0,0-0.668-16,4.666-29.334c0,0,11-19.998,9.334-57.332c0,0,8.275-16.334,8.638-22.334
			c0.363-6-0.362-15.666,0-17.666c0.362-2,11.362-60.002,11.695-63.336c0.229-2.285,1.868-3.004,2.876-3.229h2.155
			c1.008,0.226,2.646,0.942,2.875,3.229c0.334,3.334,11.334,61.336,11.695,63.336c0.362,2-0.361,11.666,0,17.666
			c0.362,6,8.639,22.334,8.639,22.334c-1.666,37.334,9.334,57.332,9.334,57.332c5.334,13.334,4.666,29.334,4.666,29.334
			c-2,10.332,0.666,29,1.334,32.334c0.666,3.334,7,9.332,10,10.715c3,1.381,4.332-2.049,6-0.383
			c1.666,1.668,5.332-2.666,6.998-2.666c1.668,0,0.666-3.666,4.666-3s3-4.666,1.334-6.334c-1.666-1.666-10.664-10.666-10.998-13.666
			s-2.668-12.666-4-15c-1.334-2.334-2-13-2-13c8.332-22,4.332-59.666,4.332-59.666c-4-9.668-8-58.668-8-58.668
			c11.666-53-6-108.667-6-108.667c0-5-4-32.667-4-32.667c-1-21,7.668-36.667,7.668-36.667c1.666,5.667,5.666,21.333,5.666,21.333
			s-0.666-5,0.666,1.75c1.334,6.75,12.332,28.25,12.332,28.25c20.334,16.333,29.334,39.333,29.334,39.333
			c0.334,9.668,3.666,17,4,18.333c0.334,1.332,1.334,15.668,1.334,15.668c1,7.666,2.666,6.666,2.666,6.666
			c1.334-1,1.334-10.668,2-12.334c0.668-1.668,1.666,6.334,1.666,6.334c2,9,6,11.334,6,11.334c2-2-1-10.668-1-12
			c0-1.334-1.332-9.002-1.332-9.002c0.332-6.666,4.332,6.668,4.332,6.668c3,11.334,6,10.666,6,10.666c4.334-3-2-10.666-3.666-17.666
			s4.334-0.334,4.334-0.334c4.666,10,7.332,11,7.332,11c3.334-3-5-16.666-5.666-18.666s2-0.955,2-0.955
			C261.018,254.597,267.684,251.837,265.018,249.505z M132.778,257.171h0.042c-0.46,0.031-0.822,0.102-0.831,0.102
			C132.45,257.171,132.778,257.171,132.778,257.171z M134.132,257.272c0.002,0,0.004,0,0.007,0
			C134.136,257.272,134.134,257.272,134.132,257.272z"/>
		<g>
			<path fill="none" d="M142.975,60.51"/>
		</g>
		<g>
			<g>
				<path fill="#272B33" d="M142.739,60.673c0,0-0.269,0.771-1.048,1.632c-0.748,0.886-2.019,1.84-3.502,2.367
					c-0.731,0.275-1.514,0.434-2.248,0.483c-0.365,0.043-0.726,0.021-1.062,0c-0.336-0.011-0.651-0.064-0.938-0.139
					c-0.576-0.104-1.03-0.299-1.338-0.453c-0.308-0.15-0.473-0.253-0.473-0.253s0.196-0.063,0.52-0.143
					c0.162-0.037,0.355-0.087,0.571-0.121c0.217-0.048,0.458-0.129,0.716-0.179c0.258-0.051,0.531-0.128,0.816-0.214
					c0.286-0.076,0.583-0.143,0.885-0.247c0.606-0.176,1.243-0.373,1.868-0.614c0.634-0.215,1.254-0.479,1.853-0.714
					c0.605-0.254,1.17-0.491,1.656-0.694C142.001,60.962,142.74,60.674,142.739,60.673z"/>
			</g>
			<path fill="#F1B88B" d="M89.778,350.171l-6.334,5.334c0,0,1.666,22.666,0,25s1.334,19.666,1.667,22.666s1.833,23,1.249,27
				c-0.582,4,2.751,12.668,3.418,15c0.666,2.334-1.334,5,0.666,2.334s4-18.332,4.334-23.666c0.333-5.334,2.333-34.334,6-42.668
				c3.666-8.332,11.333-18.332,4.333-21.332s-8.322-2.002-9.661-2.334C94.111,357.171,90.778,353.505,89.778,350.171z"/>
			<path fill="#E1E597" d="M86.444,323.505c0,0,5.334,9.334,6.667,9.334s3.678-4,2.339-11c-1.339-7-17.934-53.334-4.303-78.334
				l6.631-10.668l12.333,52.002c0,0-6.001,44-5.667,45.666s-2-0.666-2.666-2c-0.667-1.334-3.974-5.666-3.82-6.666
				s-2.508-3.668-2.508-3.668"/>
			<path fill="#CEE18F" d="M104.444,330.505c0,0,10,18.334,11.334-3.666c0,0-4.939-34.271-5.667-39.668
				c-0.728-5.396-15.322-68.667-14.661-70c0.661-1.333,3.684,15,12.172,32c0,0,14.186,33.953,11.621,64.963"/>
			<g>
				<path fill="#272B33" d="M95.45,266.171c0,0,0.248,2.164,0.533,5.377c0.158,1.599,0.342,3.463,0.539,5.463
					c0.1,0.994,0.243,2.017,0.367,3.053c0.137,1.034,0.275,2.087,0.486,3.114c0.167,1.038,0.383,2.063,0.658,3.036
					c0.279,1.007,0.567,1.845,0.979,2.812c0.399,0.928,0.759,1.831,1.069,2.738c0.337,0.882,0.573,1.76,0.763,2.572
					c0.187,0.822,0.261,1.603,0.263,2.285c-0.002,0.684-0.065,1.262-0.124,1.733c-0.116,0.944-0.206,1.481-0.206,1.481
					s-0.07-0.539-0.192-1.481c-0.049-0.47-0.13-1.036-0.24-1.661c-0.127-0.625-0.329-1.304-0.603-2.033
					c-0.295-0.725-0.635-1.504-1.038-2.32c-0.379-0.811-0.851-1.676-1.294-2.584c-0.23-0.438-0.441-0.918-0.668-1.439
					c-0.249-0.505-0.396-1.029-0.562-1.561c-0.182-0.528-0.296-1.065-0.43-1.604c-0.141-0.538-0.246-1.079-0.343-1.622
					c-0.197-1.089-0.316-2.178-0.435-3.248c-0.12-1.07-0.154-2.129-0.203-3.148c-0.069-2.041-0.028-3.942,0.07-5.567
					C95.029,268.313,95.451,266.171,95.45,266.171z"/>
			</g>
			<path fill="#99D1A3" d="M132.13,188.17c0,0-0.686,52.667,0,62.333c0.685,9.666,5.647,3,0.648,6.666
				c-5,3.666-8.668-9.334-10.668-12.333c-2-3-13.332-20-17.332-23s-11-22.676-11-22.676S125.415,226.046,132.13,188.17z"/>
			<g>
				<path fill="#272B33" d="M111.778,188.17c0,0-0.075,0.879-0.208,2.417c-0.132,1.537-0.257,3.738-0.337,6.372
					c-0.02,1.316-0.044,2.745,0.055,4.242c0.106,1.483,0.258,3.093,0.794,4.536c0.623,1.51,1.317,3.086,1.935,4.718
					c0.653,1.623,1.259,3.275,1.891,4.925c1.201,3.32,2.358,6.655,3.423,9.79c0.536,1.566,1.002,3.098,1.459,4.545
					c0.421,1.463,0.856,2.824,1.179,4.124c0.141,0.66,0.338,1.259,0.411,1.886c0.081,0.587,0.032,1.255-0.15,1.777
					c-0.375,1.082-1.191,1.717-1.058,2.497c0.062,0.74,0.42,1.276,0.606,1.632c0.217,0.353,0.332,0.54,0.332,0.54
					s-0.131-0.178-0.378-0.511c-0.212-0.347-0.636-0.833-0.754-1.644c-0.073-0.403,0.056-0.879,0.288-1.292
					c0.224-0.419,0.482-0.837,0.607-1.33c0.127-0.505,0.146-1.009,0.029-1.611c-0.103-0.563-0.314-1.175-0.478-1.8
					c-0.363-1.256-0.854-2.609-1.328-4.042c-0.504-1.427-1.036-2.932-1.586-4.489c-1.102-3.114-2.303-6.427-3.54-9.727
					c-0.607-1.651-1.195-3.318-1.818-4.925c-0.591-1.624-1.255-3.184-1.873-4.738c-0.611-1.669-0.658-3.305-0.718-4.833
					c-0.042-1.532,0.04-2.971,0.111-4.297c0.172-2.651,0.493-4.839,0.705-6.369C111.605,189.037,111.778,188.17,111.778,188.17z"/>
			</g>
			<g>
				<path fill="#CCAAD0" d="M112.444,138.837c0,0-5.174,29.667,2.746,20c0,0,13.254-16,15.254-2c0,0,1.666-21.333-2-24
					s-1-1.333-1-1.333s-8.777,8-16.556,4.333L112.444,138.837z"/>
				<path fill="#A571A1" d="M112.444,138.837c-0.613,3.925-1.102,7.872-1.366,11.831c-0.126,1.978-0.221,3.964-0.103,5.937
					c0.069,0.98,0.168,1.977,0.491,2.886c0.165,0.44,0.407,0.889,0.796,1.058c0.389,0.168,0.859-0.031,1.242-0.292
					c0.796-0.544,1.377-1.348,2.043-2.099c0.66-0.748,1.347-1.472,2.059-2.171c1.426-1.393,2.945-2.71,4.665-3.76
					c0.862-0.517,1.78-0.969,2.784-1.204c0.985-0.241,2.137-0.209,3.037,0.395c0.906,0.577,1.467,1.514,1.846,2.45
					c0.398,0.946,0.572,1.946,0.75,2.936l-0.49,0.016c0.323-4.65,0.506-9.325,0.346-13.984c-0.103-2.324-0.251-4.664-0.773-6.919
					c-0.14-0.559-0.292-1.118-0.523-1.638c-0.232-0.515-0.511-1.017-0.951-1.339c-0.471-0.348-0.941-0.697-1.396-1.078
					c-0.112-0.097-0.225-0.193-0.334-0.304c-0.056-0.056-0.109-0.11-0.166-0.195c-0.014-0.03-0.027-0.036-0.043-0.097
					c-0.021-0.018-0.004-0.185,0.081-0.217c0.143-0.064,0.173-0.026,0.224-0.026c0.332,0.082,0.578,0.213,0.854,0.343l0.213,0.101
					l-0.178,0.155c-1.151,0.999-2.398,1.855-3.701,2.626c-0.324,0.193-0.652,0.383-0.992,0.55c-0.338,0.169-0.666,0.36-1.016,0.504
					c-0.685,0.325-1.393,0.593-2.109,0.842c-0.357,0.122-0.729,0.202-1.094,0.305c-0.363,0.112-0.738,0.169-1.112,0.229
					c-0.374,0.056-0.745,0.145-1.126,0.146l-1.135,0.055l-1.133-0.084c-0.381-0.002-0.744-0.134-1.115-0.201
					c-0.369-0.08-0.742-0.15-1.088-0.311l-1.055-0.412l0.045-0.046L112.444,138.837z M112.444,138.837l-1.586-2.984l-0.041-0.078
					l0.086,0.032l1.055,0.387c0.346,0.152,0.716,0.214,1.083,0.286c0.369,0.059,0.729,0.182,1.105,0.177l1.118,0.061l1.118-0.077
					c0.374-0.009,0.739-0.103,1.106-0.166c0.367-0.066,0.735-0.129,1.092-0.247c0.357-0.109,0.721-0.194,1.072-0.322
					c0.704-0.25,1.4-0.519,2.074-0.845c0.346-0.145,0.668-0.335,1.002-0.505c0.334-0.167,0.656-0.357,0.977-0.551
					c1.279-0.769,2.518-1.633,3.633-2.615l0.035,0.255c-0.251-0.119-0.533-0.253-0.77-0.309c-0.02-0.013-0.068,0.012,0.01-0.021
					c0.107-0.127,0.024-0.152,0.059-0.121c0.023,0.036,0.072,0.089,0.119,0.136c0.098,0.097,0.208,0.19,0.316,0.282
					c0.445,0.367,0.914,0.71,1.387,1.054c0.516,0.375,0.824,0.932,1.071,1.471c0.249,0.548,0.407,1.121,0.556,1.692
					c0.549,2.301,0.711,4.651,0.831,6.989c0.103,2.341,0.105,4.684,0.058,7.023c-0.057,2.341-0.145,4.678-0.32,7.016l-0.15,1.991
					l-0.34-1.975c-0.165-0.962-0.329-1.937-0.701-2.83c-0.351-0.89-0.866-1.741-1.648-2.244c-0.771-0.528-1.775-0.573-2.701-0.355
					c-0.936,0.211-1.826,0.638-2.667,1.135c-1.683,1.01-3.196,2.303-4.618,3.672c-0.71,0.688-1.396,1.402-2.056,2.139
					c-0.653,0.724-1.26,1.559-2.12,2.14c-0.413,0.273-0.982,0.548-1.549,0.312c-0.541-0.252-0.783-0.778-0.962-1.246
					c-0.337-0.972-0.424-1.979-0.488-2.974c-0.103-1.997-0.005-3.988,0.151-5.971C111.185,146.687,111.753,142.75,112.444,138.837z"
					/>
			</g>
			<g>
				<path fill="#CCAAD0" d="M110.784,171.682c0,0-1.123,7,8.102,3.667c9.225-3.333,0.667-1.383,0.667-1.383
					s12.262-3.95,12.577-2.283c0.314,1.667-1.308-15-1.308-15s-4.827-10.667-11.27,0
					C119.553,156.682,109.458,165.682,110.784,171.682z"/>
				<path fill="#A571A1" d="M110.784,171.682c-0.051,0.407-0.043,0.82,0.004,1.226c0.037,0.408,0.141,0.807,0.289,1.186
					c0.289,0.761,0.879,1.4,1.625,1.708c0.176,0.102,0.371,0.154,0.57,0.194c0.198,0.038,0.389,0.118,0.592,0.121
					c0.406,0.01,0.809,0.079,1.213,0.011c0.404-0.044,0.811-0.058,1.205-0.168c0.396-0.099,0.801-0.154,1.186-0.288
					c0.775-0.255,1.555-0.492,2.319-0.795c0.765-0.289,1.532-0.583,2.276-0.912c0.188-0.082,0.37-0.168,0.549-0.259
					c0.086-0.049,0.181-0.092,0.256-0.145c0.039-0.025,0.086-0.051,0.109-0.076c0.043-0.025,0.045-0.063,0.037-0.001
					c-0.008,0.03,0.024,0.067,0.033,0.07c-0.001,0.004,0,0.007,0.001,0.007c0.013,0-0.019-0.004-0.034-0.006
					c-0.033-0.007-0.084-0.006-0.129-0.007c-0.095,0.001-0.193,0.007-0.293,0.017c-0.199,0.019-0.4,0.048-0.602,0.079
					c-0.803,0.129-1.605,0.299-2.402,0.479l-0.086-0.314c2.256-0.722,4.527-1.39,6.829-1.958c1.153-0.278,2.312-0.541,3.498-0.698
					c0.598-0.064,1.188-0.152,1.837-0.035c0.159,0.038,0.336,0.069,0.504,0.231c0.09,0.051,0.137,0.207,0.172,0.296l0.012,0.054
					l0.003,0.009l0.001,0.003c0-0.02-0.061-0.108-0.123-0.119c-0.026-0.005-0.054-0.021-0.131-0.007
					c-0.074,0.014-0.139,0.095-0.146,0.14c-0.012,0.048-0.004,0.012-0.006,0.022v-0.007v-0.046c-0.009-0.28-0.033-0.58-0.055-0.871
					l-1.295-14.121l0.02,0.069c-0.542-1.123-1.254-2.203-2.131-3.094c-0.443-0.441-0.936-0.833-1.484-1.114
					c-0.273-0.139-0.559-0.258-0.855-0.325c-0.293-0.078-0.599-0.116-0.902-0.102c-0.302,0.002-0.607,0.047-0.898,0.141
					c-0.297,0.073-0.578,0.21-0.854,0.349c-0.272,0.148-0.535,0.315-0.781,0.51c-0.257,0.177-0.477,0.408-0.715,0.611
					c-0.445,0.448-0.863,0.924-1.244,1.433c-0.384,0.506-0.729,1.042-1.07,1.58l-0.014,0.021l-0.016,0.015
					c-1.103,1-2.152,2.069-3.156,3.173c-0.495,0.559-0.987,1.12-1.455,1.703c-0.469,0.58-0.928,1.169-1.361,1.776l-0.641,0.918
					l-0.586,0.953c-0.207,0.312-0.356,0.655-0.535,0.982c-0.18,0.328-0.342,0.664-0.471,1.014c-0.127,0.35-0.311,0.682-0.387,1.049
					c-0.088,0.361-0.215,0.716-0.271,1.084c-0.036,0.371-0.088,0.742-0.112,1.114L110.784,171.682z M110.784,171.682l-0.129-1.117
					c0.015-0.374,0.058-0.748,0.086-1.123c0.048-0.372,0.166-0.731,0.247-1.099c0.069-0.373,0.244-0.709,0.364-1.066
					c0.121-0.357,0.277-0.699,0.449-1.033c0.172-0.334,0.314-0.685,0.516-1.003l0.567-0.975l0.622-0.94
					c0.424-0.621,0.867-1.229,1.34-1.813c0.465-0.59,0.955-1.159,1.449-1.725c1.002-1.121,2.044-2.201,3.152-3.223l-0.029,0.036
					c0.342-0.548,0.688-1.095,1.075-1.615c0.384-0.522,0.81-1.016,1.266-1.483c0.247-0.214,0.473-0.453,0.742-0.644
					c0.257-0.206,0.533-0.387,0.824-0.547c0.294-0.152,0.595-0.301,0.921-0.386c0.316-0.104,0.656-0.158,0.992-0.164
					c0.338-0.018,0.68,0.022,1.004,0.105c0.33,0.072,0.645,0.2,0.941,0.349c0.599,0.3,1.125,0.714,1.594,1.174
					c0.932,0.934,1.662,2.021,2.244,3.202l0.015,0.029l0.005,0.041c0.48,4.705,0.948,9.408,1.297,14.13
					c0.02,0.298,0.041,0.587,0.049,0.898l-0.001,0.065l-0.003,0.048c-0.004,0.02,0.004-0.007-0.01,0.05
					c-0.01,0.049-0.076,0.134-0.152,0.152c-0.079,0.02-0.109,0.007-0.138-0.004c-0.066-0.019-0.132-0.116-0.136-0.144l-0.007-0.023
					l-0.012-0.044l-0.011-0.054c-0.033-0.037-0.002-0.052-0.05-0.077c-0.04-0.053-0.171-0.099-0.294-0.122
					c-0.518-0.103-1.123-0.034-1.693,0.027c-1.158,0.144-2.312,0.395-3.46,0.662c-2.292,0.546-4.567,1.195-6.819,1.896l-0.086-0.314
					c0.806-0.176,1.61-0.339,2.429-0.464c0.205-0.03,0.41-0.059,0.62-0.076c0.105-0.01,0.211-0.016,0.321-0.016
					c0.058,0.002,0.109,0,0.177,0.013c0.035,0.007,0.057,0.003,0.113,0.032c0.039,0.018,0.111,0.04,0.133,0.181
					c-0.02,0.16-0.105,0.199-0.141,0.234c-0.051,0.046-0.096,0.068-0.143,0.099c-0.094,0.063-0.188,0.104-0.281,0.156
					c-0.188,0.093-0.377,0.18-0.566,0.262c-1.527,0.632-3.055,1.216-4.647,1.673c-0.394,0.125-0.809,0.173-1.212,0.264
					c-0.401,0.102-0.82,0.107-1.232,0.142c-0.412,0.059-0.828-0.021-1.242-0.042c-0.208-0.008-0.405-0.095-0.607-0.139
					c-0.203-0.047-0.403-0.105-0.584-0.215c-0.766-0.337-1.356-1.015-1.632-1.794c-0.141-0.388-0.235-0.793-0.263-1.204
					C110.721,172.502,110.724,172.088,110.784,171.682z"/>
			</g>
			<g>
				<path fill="#CCAAD0" d="M110.889,177.17c0,0,2.556,21,13.556,13.667c0,0,9.555-1,8.62-10.667c0,0-1.739-10.659-11.813-5.941
					C121.251,174.229,111.999,179.17,110.889,177.17z"/>
				<path fill="#A571A1" d="M110.889,177.17c0.301,1.96,0.753,3.896,1.339,5.786c0.297,0.943,0.627,1.877,1.014,2.784
					c0.385,0.908,0.82,1.794,1.333,2.632c0.257,0.419,0.538,0.819,0.837,1.206c0.311,0.377,0.632,0.744,0.992,1.068
					c0.359,0.324,0.743,0.621,1.163,0.854c0.415,0.238,0.86,0.425,1.324,0.53c0.228,0.077,0.466,0.089,0.702,0.115
					c0.236,0.039,0.474,0.029,0.712,0.014c0.239,0,0.476-0.022,0.71-0.08c0.234-0.052,0.475-0.07,0.7-0.162l0.685-0.229l0.658-0.311
					c0.443-0.194,0.84-0.489,1.262-0.728l0.053-0.03l0.049-0.007c0.841-0.119,1.694-0.352,2.5-0.661
					c0.812-0.302,1.585-0.705,2.292-1.196c0.354-0.246,0.699-0.503,1.004-0.808c0.334-0.273,0.597-0.614,0.873-0.941
					c0.296-0.313,0.47-0.714,0.712-1.066c0.215-0.369,0.352-0.779,0.533-1.167c0.144-0.403,0.227-0.828,0.344-1.241
					c0.098-0.418,0.105-0.855,0.164-1.282c0.074-0.427,0.012-0.864,0.012-1.297l-0.02-0.65c0-0.184-0.07-0.414-0.113-0.615
					c-0.213-0.838-0.504-1.662-0.891-2.436c-0.406-0.757-0.85-1.514-1.465-2.113c-0.271-0.337-0.637-0.568-0.963-0.842
					c-0.352-0.236-0.736-0.432-1.117-0.616c-0.797-0.302-1.646-0.467-2.508-0.447c-0.43,0.042-0.866,0.023-1.29,0.115l-1.271,0.295
					c-0.416,0.123-0.816,0.306-1.227,0.456c-0.416,0.15-0.809,0.312-1.2,0.527c-1.583,0.792-3.202,1.516-4.866,2.124
					c-0.832,0.302-1.678,0.574-2.545,0.76c-0.434,0.087-0.875,0.155-1.32,0.15C111.63,177.662,111.124,177.572,110.889,177.17z
					 M110.889,177.17c0.247,0.393,0.746,0.464,1.172,0.454c0.439-0.008,0.874-0.088,1.303-0.188c0.854-0.21,1.687-0.505,2.506-0.83
					c1.636-0.656,3.226-1.425,4.792-2.232c0.38-0.217,0.801-0.401,1.213-0.558c0.416-0.161,0.821-0.353,1.248-0.486l1.305-0.327
					c0.438-0.102,0.896-0.092,1.344-0.143c0.904-0.036,1.814,0.122,2.674,0.434c0.412,0.188,0.824,0.401,1.203,0.651
					c0.352,0.289,0.742,0.539,1.031,0.892c0.657,0.636,1.126,1.424,1.555,2.213c0.407,0.805,0.712,1.655,0.939,2.526
					c0.049,0.229,0.118,0.426,0.129,0.685l0.024,0.674c0.003,0.449,0.068,0.899-0.006,1.348c-0.058,0.448-0.065,0.903-0.165,1.344
					c-0.12,0.437-0.207,0.885-0.355,1.312c-0.189,0.413-0.334,0.849-0.562,1.242c-0.257,0.375-0.449,0.797-0.763,1.129
					c-0.294,0.347-0.577,0.705-0.93,0.993c-0.325,0.32-0.688,0.589-1.062,0.845c-0.745,0.512-1.555,0.926-2.398,1.235
					c-0.846,0.317-1.707,0.552-2.617,0.675l0.102-0.037c-0.441,0.248-0.851,0.547-1.317,0.75l-0.69,0.321l-0.727,0.239
					c-0.238,0.094-0.498,0.115-0.748,0.168c-0.25,0.059-0.506,0.082-0.765,0.082c-0.257,0.015-0.515,0.023-0.771-0.023
					c-0.256-0.031-0.515-0.052-0.76-0.137c-0.5-0.122-0.979-0.332-1.416-0.593c-0.443-0.256-0.844-0.576-1.214-0.921
					c-0.372-0.347-0.698-0.731-1.012-1.126c-0.302-0.404-0.583-0.819-0.838-1.251c-1.016-1.729-1.72-3.611-2.253-5.525
					C111.526,181.091,111.132,179.139,110.889,177.17z"/>
			</g>
			<path fill="#AEAAD4" stroke="#A571A1" stroke-width="0.5185" stroke-miterlimit="10" d="M95.428,183.586
				c0,0,15.355,15.584,15.355,1.251c0,0-1.04-6.871-15.355-13.058"/>
			<path fill="#AEAAD4" stroke="#A571A1" stroke-width="0.5185" stroke-miterlimit="10" d="M93.759,161.248
				c0,0,17.6,2.054,15.633,21.342"/>
			<path fill="#AEAAD4" stroke="#A571A1" stroke-width="0.5185" stroke-miterlimit="10" d="M92.714,156.83
				c0,0,5.954-7.426,12.849-4.427c0,0,5.272,10.678,4.547,19.376"/>
			<path fill="#AEAAD4" stroke="#A571A1" stroke-width="0.5575" stroke-miterlimit="10" d="M94.567,148.215
				c0,0,4.004-7.085,5.323-8.106c1.319-1.021,10.157,11.904,8.682,18.02"/>
			<path fill="#AEAAD4" stroke="#A571A1" stroke-width="0.5" stroke-miterlimit="10" d="M93.778,154.758l-1.353-8.786
				c0,0-1.742-5.801-2.414-10.159"/>
			<path fill="#F5C7D4" d="M124.778,88.837c0,0-9-2-12-2.333s-17.373-1.667-20.354,5.333c0,0-0.334,6.667-1.49,9
				c-1.156,2.333-1.824,7.667-1.824,8.667s2.788,28.088,18.381,26.556c0,0,20.287,5.111,21.953-14.556c0,0,1.334-14.333,0-18
				S122.778,89.171,124.778,88.837z"/>
			<g>
				<path fill="#272B33" d="M65.11,128.508c1.183-0.851,2.34-1.731,3.491-2.612c0.574-0.443,1.154-0.875,1.716-1.333
					c0.561-0.458,1.143-0.886,1.696-1.352c1.126-0.906,2.217-1.85,3.318-2.777c1.071-0.961,2.147-1.916,3.177-2.912
					c0.521-0.491,1.044-0.981,1.53-1.505l1.479-1.548l1.413-1.597c0.48-0.526,0.875-1.111,1.317-1.663l0.643-0.841l0.572-0.882
					c0.373-0.59,0.815-1.149,1.101-1.779c0.304-0.62,0.674-1.219,0.929-1.854c0.233-0.643,0.457-1.288,0.706-1.927l0.044-0.128
					c1.459-3.199,3.017-6.328,4.752-9.382c0.878-1.519,1.781-3.028,2.796-4.469c0.5-0.724,1.036-1.428,1.619-2.094
					c0.29-0.334,0.597-0.655,0.928-0.951c0.341-0.282,0.692-0.569,1.108-0.719c-0.382,0.219-0.667,0.552-0.944,0.876
					c-0.264,0.342-0.517,0.689-0.75,1.053c-0.466,0.727-0.89,1.479-1.301,2.241c-0.806,1.532-1.568,3.088-2.292,4.665
					c-0.729,1.574-1.447,3.153-2.13,4.749c-0.702,1.584-1.394,3.183-2.046,4.779l0.044-0.128c-0.235,0.73-0.496,1.454-0.747,2.18
					c-0.276,0.713-0.662,1.366-0.99,2.051c-0.313,0.699-0.767,1.295-1.162,1.937l-0.619,0.941l-0.69,0.881
					c-0.472,0.575-0.904,1.19-1.41,1.731l-1.496,1.646c-0.513,0.533-1.06,1.028-1.588,1.544c-0.524,0.521-1.081,1.002-1.636,1.484
					c-0.558,0.479-1.094,0.984-1.682,1.425l-1.73,1.359c-1.174,0.878-2.362,1.734-3.585,2.536c-1.211,0.819-2.459,1.579-3.717,2.319
					C67.709,127.182,66.429,127.883,65.11,128.508z"/>
			</g>
			<path fill="#8BAFC6" d="M56.444,160.837c0,0,3,9.133,2.333,14.233s9-8.296,18.667-8.265c0,0,9-23.635,9.666-35.635
				c0,0,2-14.667-8-8.667c0,0-12.43,2.837-14.479,8.667"/>
			<g>
				<path fill="#272B33" d="M56.444,179.17c0,0-0.763,3.247-2.264,8.005c-0.373,1.19-0.794,2.474-1.258,3.826
					c-0.452,1.356-0.945,2.781-1.502,4.237c-0.562,1.455-1.067,2.987-1.719,4.493c-0.628,1.515-1.267,3.054-1.905,4.593
					c-0.714,1.511-1.429,3.022-2.132,4.509c-0.328,0.752-0.753,1.463-1.151,2.171c-0.4,0.707-0.795,1.405-1.184,2.092
					c-0.766,1.415-1.661,2.585-2.438,3.794c-0.811,1.182-1.623,2.287-2.384,3.282c-0.771,0.991-1.493,1.885-2.175,2.644
					c-0.657,0.777-1.288,1.407-1.779,1.938c-0.501,0.527-0.885,0.94-1.116,1.251c-0.212,0.325-0.326,0.499-0.326,0.499
					s0.081-0.193,0.232-0.555c0.177-0.349,0.477-0.854,0.9-1.444c0.411-0.605,0.925-1.317,1.483-2.156
					c0.571-0.829,1.169-1.795,1.838-2.833c0.637-1.057,1.328-2.201,2.058-3.412c0.354-0.619,0.717-1.255,1.089-1.905
					c0.188-0.324,0.378-0.651,0.57-0.981c0.181-0.307,0.347-0.667,0.523-1.002c0.686-1.376,1.441-2.755,2.123-4.226
					c0.672-1.475,1.355-2.973,2.039-4.471c1.307-3.033,2.625-6.06,3.82-8.925c1.215-2.859,2.349-5.527,3.321-7.813
					C55.049,182.199,56.445,179.17,56.444,179.17z"/>
			</g>
			<g>
				<path fill="#272B33" d="M65.11,184.504c0,0-0.619,3.49-2.229,8.554c-0.386,1.271-0.883,2.623-1.395,4.059
					c-0.521,1.432-1.162,2.914-1.808,4.451c-0.33,0.766-0.738,1.517-1.112,2.293c-0.392,0.769-0.748,1.566-1.2,2.326
					c-0.473,0.752-0.95,1.51-1.428,2.271l-0.727,1.145l-0.774,1.069c-1.053,1.417-2.137,2.823-3.196,4.195
					c-1.056,1.378-2.145,2.695-3.174,3.986c-2.074,2.57-4.041,4.939-5.724,6.97c-1.675,2.037-3.07,3.733-3.983,4.966
					c-0.457,0.618-0.788,1.116-0.998,1.472c-0.17,0.365-0.252,0.577-0.252,0.577s0.041-0.212,0.153-0.621
					c0.152-0.387,0.383-0.96,0.76-1.64c0.735-1.371,1.907-3.254,3.401-5.442c1.485-2.196,3.287-4.703,5.25-7.358
					c1.963-2.645,4.058-5.465,6.152-8.286l0.788-1.059l0.697-1.072c0.465-0.718,0.928-1.432,1.387-2.141
					c0.823-1.486,1.647-2.955,2.393-4.402c0.676-1.488,1.416-2.887,2.02-4.264c0.583-1.385,1.199-2.671,1.698-3.888
					c0.504-1.217,0.967-2.333,1.376-3.322c0.4-0.996,0.749-1.864,1.035-2.579C64.787,185.325,65.11,184.504,65.11,184.504z"/>
			</g>
			<g>
				<path fill="#272B33" d="M13.778,247.194c0,0,0.241-0.203,0.663-0.558c0.208-0.178,0.457-0.397,0.75-0.628
					c0.288-0.24,0.621-0.484,0.968-0.786c0.349-0.299,0.726-0.62,1.137-0.935c0.408-0.32,0.839-0.653,1.261-1.028
					c0.432-0.362,0.863-0.753,1.324-1.118c0.477-0.376,0.961-0.758,1.446-1.14c0.498-0.365,0.951-0.745,1.532-1.069
					c0.547-0.348,1.107-0.645,1.638-0.892c0.529-0.275,1.057-0.48,1.554-0.673c0.5-0.205,0.955-0.364,1.392-0.516
					c0.418-0.161,0.802-0.309,1.142-0.439c0.304-0.167,0.61-0.286,0.836-0.419c0.411-0.302,0.688-0.491,0.688-0.491
					s-0.124,0.272-0.416,0.78c-0.168,0.228-0.404,0.477-0.687,0.769c-0.293,0.256-0.639,0.542-1.028,0.816
					c-0.767,0.55-1.696,1.099-2.622,1.71c-0.487,0.286-0.924,0.633-1.388,0.945c-0.458,0.291-0.947,0.7-1.43,1.068
					c-0.49,0.36-0.981,0.72-1.464,1.074c-0.499,0.364-1.013,0.691-1.497,1.022c-0.471,0.351-0.99,0.595-1.468,0.843
					c-0.475,0.254-0.936,0.471-1.36,0.669c-0.413,0.215-0.838,0.345-1.196,0.477c-0.359,0.135-0.679,0.23-0.939,0.314
					c-0.258,0.086-0.476,0.116-0.618,0.153C13.854,247.177,13.778,247.194,13.778,247.194z"/>
			</g>
			<g>
				<path fill="#272B33" d="M17.778,247.194c0,0,0.888,0.094,2.102,0.43c1.227,0.311,2.776,0.872,4.278,1.508
					c1.501,0.642,2.955,1.343,4.044,1.891c0.274,0.113,0.528,0.27,0.753,0.357c0.226,0.086,0.43,0.199,0.598,0.261
					c0.335,0.112,0.559,0.196,0.559,0.196s-0.191,0.086-0.582,0.201c-0.38,0.078-0.951,0.147-1.606,0.098
					c-1.327-0.057-2.996-0.504-4.546-1.164c-1.552-0.663-3-1.53-4.004-2.323C18.354,247.88,17.778,247.194,17.778,247.194z"/>
			</g>
			<g>
				<path fill="#272B33" d="M92.425,337.667c0,0,0.224,0.686,0.258,1.679c0.062,0.997-0.074,2.301-0.438,3.562
					c-0.368,1.256-0.978,2.477-1.697,3.254c-0.173,0.199-0.335,0.369-0.519,0.504c-0.173,0.137-0.313,0.25-0.464,0.32
					c-0.293,0.141-0.454,0.186-0.454,0.186s0.06-0.185,0.152-0.444c0.053-0.121,0.073-0.313,0.13-0.485
					c0.055-0.175,0.083-0.4,0.142-0.619c0.093-0.449,0.202-0.976,0.334-1.531c0.132-0.557,0.283-1.152,0.458-1.743
					c0.349-1.185,0.784-2.363,1.238-3.233C91.989,338.237,92.425,337.667,92.425,337.667z"/>
			</g>
			<g>
				<path fill="#272B33" d="M101.13,342.419c0,0,0.626,0.613,1.256,1.695c0.654,1.068,1.311,2.604,1.646,4.254
					c0.065,0.418,0.16,0.825,0.185,1.248c0.037,0.42,0.071,0.827,0.047,1.237c-0.006,0.403-0.035,0.795-0.11,1.172
					c-0.036,0.187-0.062,0.366-0.103,0.538c-0.059,0.173-0.116,0.34-0.171,0.5c-0.059,0.157-0.101,0.309-0.166,0.445
					c-0.08,0.136-0.156,0.263-0.227,0.383c-0.135,0.236-0.267,0.428-0.426,0.559c-0.29,0.271-0.455,0.389-0.455,0.389
					s0.037-0.231,0.102-0.571c0.051-0.159,0.04-0.382,0.052-0.614c0.018-0.229,0.014-0.484-0.014-0.773
					c-0.009-0.277-0.044-0.578-0.097-0.902c-0.029-0.316-0.093-0.654-0.155-1.005c-0.044-0.349-0.139-0.712-0.198-1.08
					c-0.074-0.371-0.149-0.747-0.224-1.124c-0.3-1.516-0.623-3.062-0.765-4.275C101.138,343.289,101.13,342.419,101.13,342.419z"/>
			</g>
			<g>
				<path fill="#272B33" d="M93.778,364.505c0,0-0.007,1.266-0.068,3.479c-0.079,2.21-0.152,5.372-0.333,9.159
					c-0.154,3.789-0.439,8.205-0.765,12.937c-0.146,2.351-0.384,4.836-0.659,7.35c-0.068,0.629-0.135,1.262-0.203,1.895
					c-0.044,0.516-0.162,1.229-0.18,1.793c-0.09,1.17-0.144,2.461-0.207,3.707c-0.111,2.52-0.223,5.037-0.333,7.518
					c-0.103,2.482-0.203,4.924-0.301,7.289c-0.204,4.729-0.394,9.145-0.557,12.928c-0.156,3.783-0.351,6.938-0.392,9.146
					c-0.024,1.104-0.044,1.971-0.057,2.562c0.035,0.592,0.053,0.904,0.053,0.904s-0.056-0.311-0.162-0.896
					c-0.051-0.59-0.175-1.459-0.224-2.564c-0.13-2.211-0.3-5.373-0.367-9.166c-0.085-3.795-0.109-8.219-0.055-12.961
					c0.037-2.369,0.047-4.82,0.131-7.309c0.088-2.488,0.177-5.02,0.266-7.549c0.078-1.275,0.135-2.508,0.253-3.848
					c0.043-0.695,0.136-1.221,0.223-1.949c0.07-0.611,0.139-1.221,0.208-1.828c0.269-2.43,0.61-4.805,0.811-7.178
					c0.466-4.711,0.963-9.102,1.375-12.869c0.406-3.768,0.837-6.9,1.086-9.1C93.596,365.757,93.778,364.505,93.778,364.505z"/>
			</g>
			<g>
				<path fill="#272B33" d="M85.805,454.505c0,0,0.511,0.037,1.378,0.283c0.86,0.252,2.092,0.709,3.391,1.629
					c0.322,0.232,0.637,0.504,0.977,0.773c0.308,0.303,0.623,0.625,0.931,0.973c0.271,0.375,0.592,0.738,0.843,1.162
					c0.232,0.43,0.521,0.855,0.688,1.342c0.392,0.947,0.684,1.98,0.786,3.047c0.023,0.531,0.103,1.072,0.073,1.607l-0.1,1.604
					c-0.102,0.988-0.203,1.975-0.302,2.945c-0.09,0.986-0.238,1.951-0.35,2.887c-0.145,0.943-0.16,1.82-0.23,2.668
					c-0.051,0.848-0.125,1.65-0.197,2.395c-0.085,0.744-0.088,1.43-0.119,2.039c-0.033,0.613-0.062,1.146-0.085,1.588
					c-0.041,0.881-0.045,1.393-0.045,1.393s-0.034-0.123-0.098-0.352c-0.054-0.229-0.182-0.566-0.253-1.004
					c-0.082-0.436-0.187-0.967-0.283-1.578c-0.099-0.613-0.24-1.309-0.265-2.072c-0.056-0.764-0.113-1.594-0.146-2.475
					c-0.029-0.879-0.126-1.828-0.032-2.76c0.061-0.939,0.09-1.916,0.18-2.9c0.081-1,0.162-2.016,0.244-3.031l0.119-1.396
					c0.04-0.467-0.026-0.92-0.031-1.377c-0.079-0.9-0.221-1.781-0.504-2.596c-0.279-0.811-0.653-1.559-1.08-2.238
					c-0.227-0.33-0.478-0.631-0.701-0.941c-0.259-0.279-0.498-0.568-0.752-0.822c-0.522-0.492-1.029-0.93-1.512-1.283
					c-0.486-0.346-0.926-0.639-1.303-0.857C86.275,454.707,85.805,454.505,85.805,454.505z"/>
			</g>
			<g>
				<path fill="#272B33" d="M82.944,465.171c0,0-0.071,1.141-0.453,2.756c-0.182,0.811-0.438,1.74-0.763,2.719
					c-0.321,0.98-0.703,2.012-1.142,3.021c-0.438,1.008-0.93,1.998-1.445,2.9c-0.509,0.904-1.044,1.727-1.567,2.395
					c-0.512,0.672-1.021,1.189-1.426,1.502c-0.193,0.162-0.386,0.254-0.507,0.311c-0.128,0.043-0.196,0.064-0.196,0.064
					s0.205-0.199,0.398-0.631c0.206-0.422,0.442-1.055,0.73-1.809c0.279-0.762,0.607-1.646,0.978-2.59
					c0.192-0.469,0.363-0.965,0.575-1.451c0.207-0.492,0.417-0.99,0.627-1.49c0.431-0.992,0.894-1.977,1.351-2.891
					c0.453-0.914,0.905-1.76,1.325-2.471C82.248,466.076,82.945,465.171,82.944,465.171z"/>
			</g>
			<g>
				<path fill="#272B33" d="M85.805,465.171c0,0,0.015,0.797-0.207,1.889c-0.196,1.105-0.636,2.5-1.22,3.834
					c-0.588,1.334-1.319,2.605-2.005,3.502c-0.659,0.908-1.263,1.443-1.262,1.443s-0.017-0.799,0.205-1.891
					c0.194-1.105,0.636-2.5,1.222-3.834c0.59-1.332,1.323-2.604,2.008-3.5C85.203,465.707,85.805,465.171,85.805,465.171z"/>
			</g>
			<g>
				<path fill="#272B33" d="M87.778,465.171c0,0,0.366,1.109,0.591,2.799c0.125,0.846,0.209,1.832,0.247,2.895
					c0.033,1.059,0.025,2.191-0.064,3.322c-0.089,1.133-0.237,2.262-0.469,3.312c-0.09,0.527-0.234,1.031-0.376,1.506
					c-0.121,0.479-0.29,0.92-0.454,1.324c-0.142,0.408-0.322,0.77-0.494,1.084c-0.16,0.316-0.309,0.584-0.469,0.793
					c-0.302,0.418-0.485,0.633-0.485,0.633s0.035-0.299,0.116-0.781c0.054-0.232,0.064-0.539,0.108-0.873
					c0.042-0.334,0.078-0.709,0.108-1.123c0.115-1.645,0.268-3.836,0.422-6.025c0.086-1.098,0.185-2.199,0.302-3.234
					c0.104-1.035,0.232-2.004,0.366-2.838C87.476,466.296,87.779,465.171,87.778,465.171z"/>
			</g>
			<g>
				<path fill="#272B33" d="M89.856,465.171c0,0,0.231,1.26,0.307,3.127c0.045,0.936,0.054,2.023,0.021,3.188
					c-0.031,1.16-0.085,2.398-0.219,3.633c-0.125,1.232-0.293,2.463-0.487,3.609c-0.179,1.146-0.402,2.219-0.678,3.135
					c-0.499,1.832-1,2.977-1,2.977s-0.155-1.303-0.137-3.143c-0.002-0.465,0.013-0.955,0.028-1.484
					c0.003-0.533,0.001-1.096,0.035-1.672c0.041-1.158,0.123-2.389,0.249-3.615c0.131-1.227,0.277-2.453,0.459-3.598
					c0.174-1.146,0.377-2.213,0.589-3.125C89.421,466.375,89.857,465.171,89.856,465.171z"/>
			</g>
			<g>
				<path fill="#272B33" d="M121.417,287.171c0,0,0.014-1.422,0.039-3.91c0.035-2.483-0.004-6.035-0.132-10.281
					c-0.076-2.122-0.174-4.42-0.363-6.836c-0.191-2.414-0.451-4.96-0.949-7.514c-0.103-0.647-0.254-1.279-0.431-1.906l-0.247-0.949
					c-0.101-0.307-0.224-0.6-0.334-0.902c-0.116-0.299-0.219-0.604-0.344-0.899l-0.44-0.933c-0.301-0.613-0.603-1.229-0.906-1.847
					c-1.246-2.472-2.653-4.919-4.011-7.445c-0.664-1.275-1.327-2.555-1.838-4.002c-0.125-0.365-0.237-0.745-0.313-1.164
					c-0.078-0.41-0.125-0.885-0.008-1.44c0.094-0.559,0.568-1.211,1.115-1.456l0.101-0.053c-0.087,0.03,0.177-0.071,0.159-0.062
					l0.032-0.009l0.063-0.019c0.013-0.004,0.04-0.013,0.124-0.026c0.131-0.022,0.279-0.033,0.401-0.028l0.254,0.035
					c0.314,0.064,0.553,0.171,0.758,0.279c0.802,0.448,1.322,0.969,1.85,1.492c0.513,0.531,0.971,1.079,1.412,1.634
					c0.876,1.108,1.66,2.245,2.392,3.385c1.466,2.276,2.688,4.583,3.738,6.817c1.056,2.232,1.906,4.412,2.571,6.463
					c1.358,4.096,1.837,7.703,1.846,10.209c0.014,1.256-0.123,2.236-0.227,2.896c-0.108,0.659-0.2,1.004-0.2,1.004
					s0.055-0.354,0.092-1.018c0.042-0.663,0.044-1.639-0.054-2.866c-0.104-1.228-0.334-2.71-0.757-4.37
					c-0.421-1.662-1.021-3.502-1.78-5.469c-1.544-3.919-3.771-8.346-6.699-12.698c-0.734-1.084-1.518-2.159-2.367-3.181
					c-0.425-0.509-0.865-1.008-1.328-1.462c-0.449-0.451-0.956-0.901-1.384-1.126c-0.103-0.057-0.192-0.083-0.221-0.089
					c-0.002,0.002-0.004,0.001-0.005-0.003c0.035,0.006,0.095,0.003,0.139-0.017c0.039-0.016,0.024-0.014-0.005-0.004l-0.063,0.02
					l-0.031,0.009c-0.04,0.013,0.207-0.074,0.1-0.034l-0.015,0.012c-0.089,0.061-0.067,0.03-0.109,0.162
					c-0.071,0.283,0.062,0.951,0.279,1.536c0.439,1.221,1.092,2.472,1.747,3.708c1.311,2.49,2.717,4.981,3.969,7.517
					c0.314,0.635,0.621,1.266,0.915,1.912l0.421,0.953c0.137,0.342,0.248,0.689,0.371,1.033c0.117,0.344,0.247,0.688,0.349,1.029
					l0.242,1.025c0.173,0.682,0.316,1.358,0.407,2.03c0.472,2.687,0.609,5.287,0.706,7.744c0.104,2.459,0.069,4.778,0.021,6.917
					c-0.043,2.139-0.161,4.095-0.274,5.826c-0.121,1.732-0.241,3.238-0.35,4.48C121.614,285.761,121.417,287.171,121.417,287.171z"
					/>
			</g>
			<g>
				<path fill="#272B33" d="M107.956,244.837c-0.007,0,0.111-0.04,0.232-0.137c0.056-0.038,0.115-0.102,0.181-0.164
					c0.063-0.07,0.118-0.115,0.17-0.2c0.041-0.065,0.085-0.137,0.132-0.213c0.041-0.089,0.077-0.169,0.119-0.23
					c0.042-0.047,0.083-0.144,0.134-0.223c0.047-0.081,0.108-0.146,0.171-0.209c0.067-0.071,0.122-0.177,0.2-0.25
					c0.07-0.083,0.156-0.154,0.246-0.225c0.188-0.13,0.344-0.315,0.55-0.426c0.369-0.25,0.797-0.39,0.797-0.39
					s0.208,0.363,0.248,0.865c0.021,0.256,0.051,0.545-0.059,0.836c-0.104,0.292-0.241,0.594-0.444,0.865
					c-0.276,0.256-0.509,0.513-0.884,0.641c-0.181,0.066-0.36,0.11-0.523,0.139c-0.186,0.006-0.363-0.021-0.511-0.051
					c-0.144-0.012-0.284-0.109-0.386-0.169c-0.102-0.055-0.186-0.141-0.245-0.215C107.968,244.94,107.964,244.834,107.956,244.837z"
					/>
			</g>
			<g>
				<path fill="#272B33" d="M109.784,249.524c0,0-0.342-0.337-0.491-0.909c-0.104-0.287-0.125-0.623-0.118-0.983
					c-0.005-0.182,0.046-0.363,0.087-0.549c0.045-0.185,0.096-0.37,0.174-0.551c0.197-0.346,0.374-0.7,0.672-0.952
					c0.302-0.246,0.568-0.472,0.883-0.555c0.617-0.189,1.049-0.099,1.049-0.099s-0.091,0.504-0.259,0.933
					c-0.051,0.1-0.062,0.249-0.099,0.372c-0.035,0.127-0.073,0.251-0.123,0.367c-0.059,0.108-0.084,0.249-0.133,0.374
					c-0.042,0.13-0.104,0.249-0.164,0.369c-0.063,0.12-0.103,0.259-0.173,0.38c-0.057,0.127-0.149,0.239-0.208,0.366
					c-0.13,0.248-0.306,0.478-0.459,0.688c-0.154,0.214-0.313,0.39-0.433,0.524C109.86,249.444,109.784,249.524,109.784,249.524z"/>
			</g>
			<g>
				<path fill="#272B33" d="M118.569,70.045c0,0,0.129,0.267,0.335,0.738c0.197,0.475,0.507,1.143,0.838,1.957
					c0.675,1.624,1.515,3.805,2.343,5.985c0.411,1.09,0.822,2.18,1.208,3.202c0.396,1.016,0.767,1.963,1.1,2.769
					c0.34,0.802,0.638,1.462,0.88,1.913c0.269,0.424,0.42,0.687,0.42,0.687s-0.212-0.197-0.58-0.576
					c-0.317-0.408-0.784-0.996-1.232-1.765c-0.457-0.763-0.933-1.683-1.399-2.686c-0.464-1.003-0.907-2.095-1.332-3.191
					c-0.828-2.202-1.514-4.45-1.95-6.158c-0.226-0.852-0.365-1.577-0.481-2.078C118.614,70.338,118.569,70.045,118.569,70.045z"/>
			</g>
			<g>
				<path fill="#272B33" d="M117.319,78.67c0,0,0.089,0.547,0.011,1.354c-0.068,0.807-0.306,1.874-0.787,2.868
					c-0.119,0.248-0.257,0.488-0.406,0.719c-0.129,0.24-0.322,0.442-0.484,0.648c-0.154,0.211-0.373,0.371-0.546,0.536
					c-0.182,0.162-0.396,0.273-0.572,0.387c-0.182,0.11-0.381,0.161-0.539,0.222c-0.154,0.07-0.313,0.072-0.433,0.088
					c-0.244,0.023-0.375,0.024-0.375,0.024s0.112-0.077,0.308-0.211c0.095-0.064,0.212-0.126,0.324-0.24
					c0.112-0.111,0.248-0.208,0.373-0.344c0.25-0.276,0.513-0.604,0.758-0.993c0.237-0.393,0.493-0.813,0.693-1.273
					c0.233-0.441,0.417-0.914,0.616-1.35c0.188-0.446,0.364-0.863,0.515-1.22C117.078,79.164,117.319,78.67,117.319,78.67z"/>
			</g>
		</g>
		<g opacity="0.3">
			<g>
				<path fill="#272B33" d="M123.201,59.755c0,0,0.738,0.289,1.724,0.711c0.484,0.203,1.05,0.44,1.655,0.694
					c0.599,0.235,1.219,0.499,1.853,0.714c0.625,0.241,1.262,0.438,1.868,0.615c0.302,0.104,0.6,0.171,0.885,0.247
					c0.285,0.086,0.559,0.163,0.817,0.214c0.258,0.049,0.5,0.13,0.717,0.179c0.216,0.034,0.41,0.084,0.571,0.121
					c0.324,0.08,0.52,0.143,0.52,0.143s-0.164,0.103-0.473,0.253c-0.308,0.154-0.762,0.349-1.338,0.453
					c-0.287,0.074-0.603,0.128-0.938,0.139c-0.336,0.021-0.696,0.043-1.062,0c-0.735-0.049-1.516-0.208-2.249-0.483
					c-1.483-0.527-2.755-1.481-3.503-2.367C123.469,60.526,123.201,59.755,123.201,59.755z"/>
			</g>
			<g>
				<path fill="#272B33" d="M176.163,349.253l6.448,5.197l0.068,0.055l-0.006,0.095c-0.229,4.292-0.391,8.59-0.449,12.883
					c-0.026,2.146-0.026,4.293,0.051,6.429c0.031,1.067,0.084,2.133,0.193,3.18c0.062,0.518,0.124,1.045,0.245,1.518
					c0.024,0.125,0.06,0.234,0.099,0.337c0.032,0.118,0.074,0.201,0.111,0.261l0.025,0.055l0.08,0.138l0.099,0.176
					c0.065,0.165,0.14,0.354,0.185,0.515c0.282,1.179,0.271,2.264,0.275,3.363c-0.01,1.094-0.066,2.18-0.145,3.26
					c-0.152,2.162-0.381,4.311-0.637,6.451c-0.257,2.141-0.543,4.279-0.834,6.41c-0.139,1.061-0.309,2.137-0.391,3.164
					c-0.096,1.072-0.171,2.141-0.242,3.205c-0.293,4.271-0.59,8.564-0.775,12.848c-0.086,2.139-0.192,4.289-0.191,6.412l-0.01,1.594
					c-0.002,0.531,0.056,1.021,0.078,1.535l0.043,0.762l0.074,0.855c0.01,0.613-0.012,1.236-0.074,1.781
					c-0.244,2.252-0.797,4.371-1.396,6.465c-0.594,2.084-1.32,4.162-1.941,6.154c-0.271,0.809-0.149,1.662,0.117,2.648
					c0.036,0.156,0.068,0.191,0.123,0.547c-0.055,0.258,0.152-0.119-0.158,0.682c-0.345,0.686-1.688,0.34-1.381,0.295
					c-0.16-0.105-0.158-0.123-0.195-0.152l-0.082-0.082l-0.174-0.207l-0.512-0.662l-0.121-0.162l-0.031-0.039l-0.084-0.123
					l-0.051-0.088l-0.203-0.348c-0.14-0.203-0.265-0.551-0.39-0.834c-0.473-1.17-0.726-2.174-0.996-3.262
					c-0.251-1.066-0.471-2.135-0.674-3.203c-0.79-4.271-1.358-8.551-1.806-12.855c-0.232-2.154-0.342-4.342-0.484-6.463l-0.479-6.42
					c-0.349-4.279-0.75-8.553-1.239-12.812c-0.509-4.256-1.019-8.516-1.796-12.713c-0.379-2.1-0.848-4.18-1.477-6.176l-0.529-1.457
					c-0.215-0.496-0.434-0.981-0.654-1.457c-0.451-0.963-0.928-1.922-1.412-2.879c-0.967-1.914-1.973-3.822-2.878-5.797
					c-0.878-1.979-1.771-4.012-2.013-6.273c-0.112-1.116-0.014-2.34,0.586-3.391c0.607-1.043,1.628-1.746,2.68-2.137
					c1.992-0.77,4.052-1.551,6.211-1.908c0.539-0.101,1.087-0.14,1.637-0.166c0.543-0.017,1.098,0.037,1.582-0.037
					c0.495-0.052,0.897-0.373,1.319-0.695c0.408-0.332,0.798-0.695,1.163-1.084C174.206,353.089,175.456,351.287,176.163,349.253z
					 M176.163,349.253c-0.616,2.065-1.79,3.94-3.202,5.578c-0.354,0.414-0.74,0.797-1.152,1.158
					c-0.404,0.336-0.887,0.738-1.474,0.823c-0.578,0.104-1.106,0.062-1.636,0.097c-0.524,0.045-1.049,0.1-1.564,0.213
					c-2.08,0.418-4.044,1.235-6.029,2.08c-0.941,0.389-1.763,1.022-2.217,1.866c-0.449,0.853-0.515,1.874-0.38,2.88
					c0.294,2.024,1.156,3.998,2.068,5.909c0.927,1.917,1.965,3.795,2.978,5.699c0.506,0.95,1.008,1.909,1.487,2.884
					c0.243,0.494,0.478,0.984,0.698,1.471l0.604,1.562c0.708,2.091,1.226,4.206,1.654,6.329c0.862,4.247,1.515,8.519,2.028,12.802
					c0.521,4.279,0.953,8.568,1.332,12.861l0.523,6.441c0.161,2.168,0.28,4.277,0.524,6.396c0.469,4.246,1.063,8.498,1.866,12.682
					c0.207,1.043,0.427,2.08,0.675,3.104c0.249,0.996,0.532,2.084,0.86,2.91c0.092,0.207,0.113,0.385,0.275,0.633l0.201,0.35
					l0.051,0.088c-0.104-0.15-0.012-0.02-0.025-0.041l0.029,0.041l0.12,0.16l0.47,0.617l0.084,0.104
					c0.01,0.012-0.003-0.002-0.011-0.01c-0.013-0.008,0.013,0.002-0.119-0.09c0.327-0.025-0.966-0.348-1.3,0.301
					c-0.291,0.77-0.1,0.355-0.15,0.584c0.015,0.088-0.035-0.133-0.064-0.238c-0.294-1.066-0.508-2.445-0.081-3.703
					c0.672-2.109,1.382-4.086,1.981-6.137c0.6-2.029,1.142-4.092,1.373-6.119c0.062-0.523,0.073-0.975,0.082-1.436l-0.057-0.754
					l-0.05-0.848c-0.024-0.561-0.08-1.143-0.074-1.688l0.021-1.631c0.015-2.178,0.137-4.324,0.236-6.482
					c0.227-4.311,0.523-8.598,0.887-12.902c0.096-1.078,0.194-2.152,0.311-3.221c0.113-1.113,0.305-2.162,0.465-3.229
					c0.334-2.125,0.663-4.244,0.96-6.368c0.298-2.122,0.567-4.248,0.763-6.373c0.097-1.062,0.174-2.125,0.205-3.181
					c0.021-1.043,0.032-2.133-0.175-3.055c-0.026-0.1-0.051-0.162-0.067-0.252l-0.096-0.178c-0.001-0.008-0.062-0.107-0.016-0.04
					l-0.069-0.124c-0.101-0.173-0.167-0.336-0.204-0.479c-0.053-0.151-0.094-0.299-0.119-0.439
					c-0.131-0.572-0.181-1.117-0.236-1.669c-0.092-1.095-0.123-2.179-0.135-3.262c-0.006-2.165,0.066-4.319,0.164-6.472
					c0.203-4.306,0.511-8.599,0.881-12.887l0.063,0.148L176.163,349.253z"/>
			</g>
			<g>
				<path fill="#272B33" d="M179.497,322.587c-1.172,2.121-2.386,4.222-3.708,6.26c-0.684,1.009-1.337,2.027-2.247,2.91
					c-0.121,0.107-0.242,0.214-0.416,0.298c-0.086,0.045-0.168,0.077-0.343,0.079l-0.225-0.036
					c-0.373-0.124-0.656-0.345-0.865-0.582c-0.439-0.479-0.754-1.034-1.002-1.608c-0.951-2.318-1.073-4.863-0.832-7.304
					c0.219-2.489,0.99-4.806,1.567-7.155c1.261-4.68,2.494-9.355,3.558-14.072c1.067-4.715,2.002-9.457,2.709-14.229
					c0.371-2.383,0.656-4.777,0.906-7.172l0.33-3.596c0.069-1.2,0.174-2.399,0.217-3.602c0.041-1.199,0.104-2.4,0.096-3.602
					c0.021-1.2,0.007-2.398-0.039-3.598c-0.059-2.397-0.271-4.783-0.561-7.154c-0.354-2.358-0.737-4.719-1.398-7.002
					c-0.271-1.158-0.7-2.266-1.059-3.395c-0.197-0.558-0.441-1.097-0.66-1.646c-0.221-0.548-0.437-1.099-0.717-1.617l-0.789-1.581
					l-0.049-0.1c0.004,0.005-0.043-0.08,0.002-0.002l-0.029-0.048l-0.121-0.192l-0.24-0.385l-0.482-0.771l-1.929-3.081l-3.856-6.162
					l1.822-0.297l-6.248,25.981l-3.125,12.99c-1.051,4.328-2.062,8.666-3.145,12.986l0.015-0.297
					c1.304,10.357,2.587,20.716,3.798,31.087c0.303,2.593,0.57,5.188,0.836,7.787l0.369,3.903c0.063,0.647,0.096,1.309,0.146,1.961
					c0.032,0.314,0.009,0.707,0.008,1.054c0.006,0.035-0.017,0.149-0.024,0.22c-0.021,0.111,0.018,0.068-0.002,0.113
					c0.004-0.021-0.016-0.044-0.039-0.041c-0.009-0.02-0.035-0.031-0.053-0.018c0.03-0.019,0.055-0.004,0.12-0.043
					c0.478-0.248,0.956-0.748,1.362-1.215c0.435-0.482,0.729-1,1.066-1.586c0.711-1.123,1.478-2.166,2.192-3.256
					c0.688-1.104,1.521-2.13,1.618-3.477c0.611-1.19,1.549-2.121,2.46-3.051c-0.869,0.959-1.774,1.949-2.31,3.113
					c-0.062,0.154-0.104,0.271-0.105,0.438c-0.006,0.121,0.016,0.365-0.045,0.51c-0.084,0.334-0.232,0.629-0.373,0.93
					c-0.297,0.588-0.631,1.151-0.975,1.709c-0.683,1.113-1.428,2.2-2.08,3.305c-0.293,0.552-0.631,1.186-1.062,1.687
					c-0.438,0.517-0.843,1.021-1.513,1.405c-0.075,0.05-0.215,0.084-0.344,0.104c-0.095-0.008-0.203-0.035-0.287-0.078
					c-0.072-0.063-0.141-0.152-0.184-0.24c-0.029-0.115-0.054-0.319-0.035-0.371c0.008-0.092,0.019-0.139,0.023-0.268
					c-0.023-0.305-0.005-0.566-0.047-0.9c-0.068-0.646-0.12-1.289-0.204-1.936l-0.489-3.879l-1.056-7.753
					c-1.405-10.338-2.884-20.67-4.384-30.996l-0.021-0.141l0.035-0.156c0.973-4.347,2.018-8.676,3.021-13.015l3.043-13.012
					l6.086-26.02l0.552-2.354l1.271,2.058l3.818,6.186l1.908,3.093c0.326,0.542,0.621,0.973,0.972,1.605l0.824,1.676
					c0.291,0.552,0.515,1.131,0.745,1.708c0.226,0.578,0.477,1.147,0.681,1.732c0.369,1.181,0.808,2.345,1.083,3.549
					c0.672,2.382,1.055,4.819,1.402,7.252c0.283,2.44,0.483,4.89,0.529,7.337c0.038,1.225,0.047,2.447,0.018,3.67
					c0.001,1.225-0.071,2.443-0.121,3.664c-0.126,2.439-0.327,4.872-0.611,7.295c-0.299,2.42-0.633,4.834-1.052,7.231
					c-1.615,9.604-4.101,19.022-6.841,28.321c-0.652,2.326-1.489,4.629-1.76,6.978c-0.311,2.349-0.258,4.81,0.571,7.017
					c0.214,0.545,0.494,1.065,0.86,1.49c0.393,0.424,0.781,0.729,1.23,0.247c0.858-0.778,1.564-1.795,2.271-2.765
					C176.939,326.707,178.238,324.658,179.497,322.587z"/>
			</g>
			<g>
				<path fill="#272B33" d="M161.497,329.587c-0.909,1.672-1.94,3.289-3.181,4.752c-0.625,0.726-1.306,1.422-2.131,1.953
					c-0.402,0.278-0.869,0.475-1.36,0.598c-0.503,0.102-1.043,0.041-1.524-0.174c-0.938-0.5-1.465-1.418-1.873-2.293
					c-0.383-0.898-0.66-1.832-0.863-2.773c-0.211-0.941-0.373-1.891-0.489-2.843c-0.14-0.952-0.204-1.907-0.298-2.862l-0.004-0.029
					l0.006-0.049c1.095-8.791,2.312-17.563,3.47-26.346l1.756-13.169c0.708-4.478,1.712-8.735,2.616-13.093l5.621-25.976
					l2.779-12.988c0.91-4.332,1.869-8.656,2.721-12.986c0.214-1.082,0.417-2.164,0.603-3.239c0.085-0.532,0.171-1.074,0.214-1.543
					c-0.002-0.031-0.007,0.063,0.021,0.089c0.013,0.02,0.029,0.038,0.051,0.052c0.005-0.009,0.129,0.213,0.061,0.096
					c-0.058-0.097,0.024,0.095,0.278,0.25c0.201,0.108,0.447,0.149,0.673,0.079c0.133-0.037,0.213-0.083,0.299-0.154
					c0.057-0.037,0.106-0.112,0.1-0.099c0.018-0.027-0.012,0.017-0.025,0.049c-0.082,0.164-0.18,0.417-0.267,0.659
					c-0.69,2.026-1.302,4.194-1.966,6.303c-1.314,4.245-2.739,8.465-4.35,12.619c-0.804,2.077-1.65,4.138-2.548,6.178
					c-0.448,1.021-0.909,2.035-1.385,3.044l-0.722,1.508l-0.713,1.443c-1.676,4.053-3.131,8.233-4.485,12.431
					c-1.34,4.204-2.517,8.461-3.588,12.743c-1.015,4.296-1.933,8.618-2.638,12.978l-0.535,3.271l-0.403,3.288
					c-0.312,2.188-0.442,4.396-0.616,6.599l-0.123,1.653l-0.041,1.657l-0.087,3.316c-0.028,2.211,0.104,4.422,0.147,6.637
					c-0.135-2.207-0.358-4.418-0.42-6.635l-0.025-3.326l-0.009-1.666l0.071-1.662c0.106-2.217,0.17-4.438,0.416-6.645l0.306-3.318
					l0.437-3.303c0.551-4.41,1.442-8.769,2.368-13.113c0.998-4.33,2.101-8.637,3.372-12.897c1.288-4.258,2.667-8.478,4.299-12.646
					l1.443-3.034c0.462-0.998,0.911-2.003,1.348-3.013c0.874-2.02,1.699-4.062,2.48-6.12c1.566-4.117,2.951-8.303,4.229-12.528
					c0.654-2.119,1.229-4.221,1.953-6.393c0.101-0.278,0.192-0.546,0.354-0.88c0.048-0.091,0.084-0.17,0.183-0.309
					c0.028-0.046,0.131-0.169,0.233-0.256c0.117-0.088,0.227-0.155,0.39-0.205c0.258-0.066,0.545-0.045,0.772,0.093
					c0.283,0.173,0.393,0.385,0.352,0.321c-0.055-0.087,0.104,0.16,0.104,0.188c0.023,0.083,0.045,0.17,0.062,0.259
					c0.032,0.164,0.048,0.396,0.04,0.503c-0.051,0.635-0.141,1.187-0.227,1.749c-0.184,1.108-0.383,2.204-0.592,3.296
					c-1.674,8.726-3.617,17.364-5.535,26.016l-5.779,25.938l-1.418,6.486c-0.445,2.159-0.965,4.334-1.312,6.449l-2.001,13.141
					c-1.348,8.758-2.635,17.522-4.046,26.271l0.003-0.078c0.062,0.942,0.1,1.892,0.208,2.829c0.085,0.941,0.216,1.877,0.396,2.799
					c0.168,0.926,0.412,1.833,0.748,2.697c0.188,0.419,0.375,0.846,0.645,1.208c0.247,0.382,0.582,0.677,0.948,0.903
					c0.389,0.183,0.821,0.25,1.261,0.179c0.432-0.097,0.864-0.257,1.253-0.511c0.792-0.479,1.492-1.127,2.136-1.816
					C159.425,332.791,160.521,331.22,161.497,329.587z"/>
			</g>
			<g>
				<path fill="#272B33" d="M170.491,265.253c0,0,0.421,2.143,0.608,5.396c0.1,1.625,0.141,3.526,0.07,5.567
					c-0.049,1.021-0.083,2.078-0.202,3.148c-0.118,1.07-0.237,2.159-0.436,3.247c-0.097,0.543-0.202,1.085-0.345,1.623
					c-0.133,0.539-0.246,1.076-0.429,1.604c-0.167,0.529-0.313,1.056-0.562,1.561c-0.229,0.521-0.438,1.003-0.67,1.441
					c-0.442,0.908-0.914,1.771-1.293,2.582c-0.403,0.816-0.742,1.597-1.039,2.32c-0.272,0.729-0.475,1.407-0.603,2.032
					c-0.108,0.626-0.19,1.192-0.239,1.662c-0.123,0.942-0.191,1.481-0.191,1.481s-0.092-0.537-0.206-1.481
					c-0.06-0.474-0.122-1.052-0.124-1.733c0.002-0.683,0.076-1.463,0.264-2.285c0.188-0.812,0.424-1.69,0.762-2.572
					c0.312-0.907,0.672-1.812,1.069-2.738c0.412-0.968,0.701-1.807,0.979-2.812c0.275-0.973,0.492-1.998,0.658-3.037
					c0.211-1.026,0.349-2.079,0.485-3.113c0.124-1.036,0.269-2.059,0.367-3.053c0.197-2,0.381-3.864,0.539-5.463
					C170.243,267.417,170.491,265.253,170.491,265.253z"/>
			</g>
			<g>
				<path fill="#272B33" d="M170.545,211.919c0,0-0.335,0.392-0.964,1.126c-0.657,0.708-1.552,1.816-2.824,3.1
					c-0.632,0.648-1.331,1.365-2.092,2.146c-0.793,0.751-1.69,1.525-2.633,2.376c-0.462,0.418-0.938,0.851-1.431,1.296
					c-0.433,0.483-0.886,0.94-1.326,1.494c-0.901,1.06-1.801,2.229-2.726,3.458c-3.671,4.943-7.688,10.928-11.917,17.382
					c-0.477,0.731-0.838,1.581-1.242,2.479c-0.394,0.9-0.791,1.808-1.189,2.72c-0.828,1.832-1.688,3.701-2.948,5.467
					c-0.642,0.871-1.364,1.754-2.479,2.402c-0.56,0.311-1.254,0.528-1.975,0.5c-0.724-0.015-1.398-0.285-1.924-0.631
					c-0.538-0.342-0.862-0.607-1.274-0.854c-0.198-0.123-0.398-0.233-0.574-0.317c-0.072-0.036-0.192-0.078-0.153-0.065
					c-0.032-0.008,0.112,0.024,0.185,0.008c0.333-0.166,0.674,0.111,0.887-1.045c-0.25-0.807-0.207-0.439-0.367-0.676
					c-0.16-0.113-0.181-0.09-0.2-0.104c-0.088,0.003,0.138-0.018,0.333-0.291c0.207-0.252,0.391-0.646,0.528-1.07
					c0.288-0.849,0.438-1.824,0.535-2.799l0.034-0.367l0.008-0.093c0.001-0.001,0.005-0.062,0.002-0.015l0.001-0.047l0.004-0.193
					l0.019-0.771l0.037-1.541c0.049-2.053,0.097-4.097,0.146-6.125c0.035-2.028,0.118-4.043,0.141-6.027
					c0.014-1.984,0.027-3.944,0.041-5.873c0.083-7.72,0.16-14.926,0.227-21.102c0.102-6.185,0.186-11.338,0.247-14.945
					c0.082-3.608,0.129-5.67,0.129-5.67s0.094,2.06,0.26,5.666c0.133,3.606,0.346,8.757,0.513,14.941
					c0.084,3.093,0.198,6.438,0.235,9.988c0.048,3.549,0.099,7.292,0.15,11.164c0.043,3.874,0.106,7.878-0.013,11.932
					c-0.037,2.028-0.074,4.073-0.111,6.126l-0.028,1.542l-0.014,0.77l-0.004,0.193l-0.007,0.131l-0.008,0.101l-0.035,0.401
					c-0.104,1.07-0.248,2.15-0.618,3.26c-0.189,0.551-0.426,1.115-0.869,1.67c-0.422,0.516-1.173,1.181-2.311,0.979
					c-0.145-0.037-0.288-0.062-0.557-0.242c-0.179-0.26-0.175,0.092-0.424-0.748c0.198-1.197,0.593-0.914,0.951-1.094
					c0.137-0.011,0.346,0.02,0.375,0.033c0.29,0.07,0.405,0.139,0.567,0.207c0.288,0.141,0.536,0.283,0.773,0.434
					c0.472,0.283,0.952,0.662,1.283,0.867c0.666,0.448,1.233,0.434,1.908,0.088c0.671-0.375,1.308-1.074,1.858-1.832
					c1.108-1.539,1.982-3.332,2.821-5.104c0.413-0.902,0.824-1.8,1.231-2.69c0.416-0.883,0.834-1.83,1.428-2.711
					c2.167-3.208,4.33-6.264,6.412-9.14c2.076-2.88,4.107-5.558,6.064-7.971c0.986-1.202,1.928-2.356,2.912-3.392
					c0.467-0.526,1.006-1.021,1.495-1.502c0.522-0.424,1.029-0.835,1.521-1.234c0.967-0.783,1.892-1.496,2.717-2.196
					c0.797-0.734,1.529-1.409,2.191-2.018c1.325-1.218,2.314-2.233,3.018-2.898C170.182,212.286,170.545,211.919,170.545,211.919z"
					/>
			</g>
			<g>
				<path fill="#272B33" d="M154.163,187.252c0,0,0.212,0.86,0.5,2.383c0.282,1.523,0.651,3.709,0.896,6.367
					c0.108,1.331,0.229,2.775,0.2,4.326c-0.044,1.553-0.056,3.195-0.686,4.984c-0.291,0.813-0.612,1.562-0.923,2.363
					c-0.297,0.789-0.596,1.588-0.898,2.393c-0.618,1.594-1.207,3.265-1.812,4.913c-1.222,3.302-2.442,6.604-3.586,9.699
					c-0.571,1.548-1.123,3.044-1.646,4.462c-0.484,1.421-1.014,2.768-1.408,3.998c-0.177,0.607-0.406,1.223-0.52,1.755
					c-0.071,0.313-0.086,0.562-0.1,0.8c0.004,0.246,0.018,0.496,0.076,0.725c0.1,0.467,0.339,0.873,0.553,1.313
					c0.223,0.429,0.351,0.955,0.256,1.375c-0.153,0.845-0.604,1.307-0.832,1.648c-0.262,0.323-0.401,0.496-0.401,0.496
					s0.106-0.192,0.31-0.554c0.172-0.361,0.502-0.922,0.527-1.627c0.021-0.354-0.113-0.689-0.366-1.056
					c-0.247-0.363-0.577-0.806-0.78-1.375c-0.107-0.284-0.164-0.588-0.205-0.908c-0.023-0.335-0.028-0.673,0.002-0.956
					c0.062-0.658,0.242-1.253,0.369-1.932c0.291-1.325,0.688-2.692,1.1-4.167c0.438-1.455,0.885-2.997,1.4-4.572
					c0.524-1.571,1.025-3.209,1.61-4.847c0.582-1.639,1.175-3.304,1.765-4.969c0.633-1.654,1.238-3.303,1.897-4.938
					c0.615-1.644,1.356-3.215,1.985-4.701c0.52-1.322,0.705-2.925,0.828-4.384c0.111-1.479,0.127-2.902,0.144-4.213
					c-0.008-2.627-0.086-4.831-0.147-6.374C154.202,188.135,154.163,187.252,154.163,187.252z"/>
			</g>
			<g>
				<path fill="#272B33" d="M153.497,137.919c0.87,3.884,1.496,7.817,1.962,11.787c0.206,1.989,0.35,3.988,0.291,6.028
					c-0.043,1.023-0.104,2.049-0.463,3.135c-0.202,0.517-0.441,1.185-1.26,1.59c-0.408,0.189-0.879,0.167-1.219,0.067
					c-0.361-0.094-0.637-0.252-0.894-0.413c-0.981-0.646-1.636-1.538-2.271-2.209c-0.662-0.71-1.342-1.412-2.045-2.082
					c-1.406-1.334-2.906-2.586-4.517-3.534c-0.804-0.466-1.642-0.85-2.456-1.035c-0.818-0.187-1.572-0.135-2.137,0.259
					c-0.583,0.372-1.037,1.079-1.354,1.891c-0.338,0.805-0.495,1.74-0.653,2.658l-1.371,7.982l-0.608-8.045
					c-0.178-2.361-0.265-4.701-0.319-7.056c-0.043-2.352-0.058-4.709,0.073-7.072c0.142-2.364,0.32-4.73,0.907-7.118
					c0.158-0.598,0.33-1.195,0.611-1.795c0.276-0.582,0.642-1.241,1.3-1.712c0.477-0.335,0.942-0.666,1.37-1.008
					c0.104-0.083,0.209-0.171,0.283-0.242c0.037-0.029,0.072-0.08,0.041-0.028c-0.023,0.05-0.011-0.005-0.067,0.172
					c-0.009,0.088-0.033,0.071,0.003,0.318c0.057,0.211,0.174,0.341,0.296,0.426c0.06,0.043,0.156,0.08,0.194,0.089l0.074,0.018
					c0.045,0.009,0.116,0.007,0.113,0.007c0.026,0,0.062-0.007,0.057-0.006c-0.062,0.006-0.412,0.145-0.619,0.244l0.164-1.185
					c0.509,0.47,1.099,0.941,1.682,1.374c0.585,0.441,1.188,0.866,1.812,1.249c0.31,0.197,0.621,0.392,0.944,0.563
					c0.322,0.174,0.636,0.37,0.97,0.519c0.652,0.335,1.328,0.615,2.012,0.877c0.34,0.135,0.693,0.228,1.039,0.344
					c0.347,0.125,0.703,0.197,1.061,0.271c0.357,0.072,0.713,0.175,1.077,0.192l1.091,0.106l1.096-0.029
					c0.371,0.017,0.724-0.096,1.088-0.143c0.362-0.06,0.729-0.11,1.071-0.25l1.052-0.353l0.433-0.145l-0.216,0.371L153.497,137.919z
					 M153.497,137.919l1.407-3.076l0.218,0.225l-1.06,0.446c-0.348,0.171-0.724,0.254-1.099,0.345
					c-0.376,0.079-0.746,0.222-1.132,0.235l-1.156,0.116l-1.16-0.026c-0.392,0.008-0.771-0.07-1.156-0.118
					c-0.385-0.051-0.771-0.101-1.143-0.205c-0.375-0.095-0.758-0.167-1.127-0.283c-0.736-0.236-1.466-0.495-2.171-0.81
					c-0.362-0.14-0.699-0.325-1.048-0.491c-0.352-0.163-0.688-0.349-1.023-0.538c-0.679-0.367-1.332-0.777-1.972-1.208
					c-0.644-0.438-1.25-0.884-1.868-1.41l-0.84-0.715l1.004-0.47c0.318-0.149,0.498-0.275,1.003-0.407
					c0.029-0.007,0.103-0.017,0.165-0.021c0.016-0.002,0.105,0,0.168,0.01l0.102,0.021c0.047,0.012,0.15,0.055,0.219,0.102
					c0.142,0.091,0.267,0.237,0.326,0.467c0.047,0.265,0.011,0.265,0,0.372c-0.062,0.214-0.075,0.187-0.114,0.27
					c-0.114,0.173-0.179,0.229-0.246,0.303c-0.132,0.136-0.249,0.237-0.369,0.344c-0.47,0.406-0.944,0.769-1.409,1.125
					c-0.3,0.227-0.521,0.626-0.725,1.098c-0.198,0.468-0.337,1.002-0.467,1.535c-0.483,2.168-0.616,4.492-0.697,6.79
					c-0.129,4.613,0.036,9.281,0.363,13.896l-1.979-0.063c0.185-1.034,0.364-2.074,0.798-3.107c0.412-1.014,1.034-2.095,2.141-2.803
					c0.537-0.363,1.186-0.548,1.809-0.629c0.623-0.045,1.236-0.004,1.791,0.138c1.125,0.262,2.096,0.757,2.996,1.305
					c1.792,1.113,3.326,2.471,4.768,3.899c0.717,0.718,1.41,1.455,2.068,2.228l0.945,1.132c0.302,0.348,0.626,0.667,0.947,0.896
					c0.328,0.241,0.615,0.302,0.679,0.259c0.112-0.016,0.356-0.323,0.499-0.714c0.3-0.795,0.426-1.772,0.515-2.724
					c0.164-1.929,0.115-3.909,0.039-5.88c-0.075-1.976-0.215-3.954-0.394-5.93C153.922,141.873,153.727,139.896,153.497,137.919z"/>
			</g>
			<g>
				<path fill="#272B33" d="M155.157,169.586c0.079,0.404,0.102,0.82,0.083,1.235c-0.01,0.417-0.086,0.833-0.213,1.24
					c-0.252,0.812-0.859,1.55-1.657,1.931c-0.19,0.122-0.397,0.189-0.608,0.246c-0.21,0.053-0.42,0.149-0.635,0.164
					c-0.426,0.036-0.866,0.129-1.289,0.083c-0.426-0.022-0.861-0.017-1.273-0.107c-0.414-0.079-0.847-0.118-1.25-0.232
					c-1.652-0.422-3.168-0.958-4.752-1.563c-0.196-0.078-0.396-0.164-0.6-0.258c-0.109-0.058-0.199-0.092-0.326-0.172
					c-0.062-0.041-0.105-0.057-0.203-0.139c-0.047-0.041-0.072-0.056-0.134-0.122c-0.049-0.06-0.094-0.129-0.128-0.203
					c-0.031-0.104-0.064-0.074-0.068-0.316c-0.006-0.201,0.142-0.453,0.232-0.522c0.057-0.048,0.124-0.092,0.195-0.126
					c0.181-0.082,0.189-0.062,0.256-0.08c0.131-0.023,0.186-0.02,0.263-0.024c0.142-0.002,0.259,0.003,0.373,0.012
					c0.229,0.016,0.442,0.042,0.655,0.069c0.846,0.114,1.654,0.263,2.479,0.426l-0.404,1.469c-2.25-0.646-4.528-1.261-6.799-1.785
					c-1.134-0.252-2.279-0.488-3.387-0.614c-0.523-0.058-1.15-0.094-1.443-0.027c-0.037,0.005-0.067,0.013-0.043,0.01
					c0.004-0.001,0.008-0.006,0.008-0.012c0.037-0.014,0.076-0.04,0.104-0.072c0.024-0.022,0.188-0.25,0.159-0.303l-0.011,0.054
					l-0.027,0.106l-0.019,0.056c-0.017,0.134-0.305,0.532-0.592,0.601c-0.117,0.036-0.266,0.102-0.613,0.011
					c-0.346-0.091-0.609-0.464-0.644-0.666c-0.043-0.188-0.015-0.071-0.026-0.122l-0.004-0.034l-0.009-0.118v-0.096
					c0.008-0.364,0.03-0.636,0.05-0.944c0.346-4.745,0.813-9.438,1.297-14.147l0.019-0.171l0.063-0.135
					c0.168-0.351,0.324-0.633,0.5-0.936c0.177-0.296,0.359-0.587,0.559-0.871c0.396-0.566,0.84-1.106,1.354-1.604
					c0.513-0.495,1.099-0.95,1.785-1.29c0.342-0.168,0.707-0.312,1.096-0.396c0.383-0.094,0.791-0.139,1.188-0.115
					c0.398,0.01,0.8,0.078,1.166,0.2c0.378,0.104,0.72,0.274,1.05,0.449c0.326,0.183,0.631,0.385,0.906,0.615
					c0.292,0.215,0.527,0.472,0.789,0.708c0.477,0.504,0.913,1.03,1.303,1.579c0.393,0.547,0.737,1.115,1.077,1.684l-0.138-0.167
					c1.122,1.065,2.134,2.178,3.117,3.34c0.484,0.585,0.963,1.174,1.417,1.783c0.462,0.603,0.891,1.232,1.299,1.874l0.599,0.971
					l0.545,1.005c0.191,0.328,0.326,0.689,0.489,1.033c0.164,0.343,0.312,0.695,0.423,1.062c0.111,0.366,0.276,0.71,0.336,1.093
					c0.069,0.376,0.18,0.743,0.209,1.124c0.012,0.383,0.037,0.763,0.034,1.14L155.157,169.586z M155.157,169.586l0.049-1.118
					c-0.042-0.369-0.11-0.735-0.165-1.097c-0.076-0.359-0.211-0.708-0.311-1.06c-0.084-0.356-0.278-0.682-0.416-1.021
					c-0.137-0.34-0.309-0.667-0.496-0.985c-0.188-0.318-0.344-0.65-0.561-0.952l-0.609-0.923l-0.664-0.887
					c-0.449-0.585-0.922-1.154-1.402-1.715c-0.479-0.563-0.98-1.106-1.488-1.645c-1.021-1.062-2.102-2.099-3.191-3.056l-0.065-0.059
					l-0.071-0.108c-0.344-0.518-0.689-1.032-1.068-1.512c-0.377-0.482-0.783-0.926-1.207-1.336c-0.225-0.181-0.434-0.394-0.67-0.546
					c-0.228-0.171-0.461-0.317-0.699-0.442c-0.239-0.116-0.479-0.231-0.725-0.286c-0.241-0.076-0.485-0.107-0.727-0.104
					c-0.24-0.01-0.48,0.024-0.718,0.091c-0.237,0.056-0.472,0.157-0.7,0.277c-0.459,0.242-0.895,0.592-1.292,0.998
					c-0.399,0.407-0.758,0.875-1.089,1.366c-0.168,0.243-0.324,0.498-0.475,0.755c-0.146,0.251-0.295,0.534-0.401,0.764l0.082-0.305
					l-1.292,14.103l-0.055,0.826v0.014l-0.004-0.062l-0.027-0.128c-0.032-0.198-0.295-0.566-0.639-0.653
					c-0.346-0.086-0.492-0.016-0.606,0.013c-0.282,0.06-0.565,0.451-0.579,0.576l-0.01,0.029l-0.013,0.052l0.011-0.054
					c0.039-0.179,0.22-0.578,0.38-0.676c0.085-0.08,0.18-0.153,0.274-0.214l0.213-0.098c0.158-0.07,0.271-0.094,0.381-0.115
					c0.873-0.154,1.441-0.032,2.086,0.035c1.238,0.177,2.404,0.454,3.57,0.747c2.324,0.59,4.59,1.292,6.849,2.069l-0.403,1.469
					c-0.777-0.192-1.578-0.376-2.354-0.517c-0.192-0.034-0.387-0.066-0.564-0.086l-0.24-0.021c-0.024,0-0.074-0.001-0.043-0.004
					c0.016-0.009-0.029,0.011,0.107-0.042c0.048-0.023,0.091-0.057,0.125-0.093c0.077-0.052,0.222-0.274,0.206-0.453
					c-0.022-0.216-0.022-0.167-0.046-0.248c-0.021-0.052-0.053-0.1-0.088-0.137c-0.027-0.029-0.01-0.014-0.02-0.021
					c-0.021-0.01,0.027,0.021,0.049,0.037c0.043,0.037,0.143,0.085,0.211,0.128c0.164,0.089,0.336,0.177,0.516,0.262
					c0.715,0.342,1.474,0.657,2.225,0.965c0.762,0.327,1.514,0.575,2.266,0.853c0.377,0.144,0.765,0.209,1.147,0.319
					c0.386,0.122,0.772,0.147,1.164,0.203c0.394,0.081,0.774,0.024,1.166,0.03c0.197,0.005,0.375-0.066,0.565-0.095
					c0.19-0.032,0.377-0.074,0.545-0.165c0.714-0.265,1.287-0.844,1.602-1.571c0.161-0.36,0.283-0.748,0.339-1.149
					C155.162,170.407,155.188,169.996,155.157,169.586z"/>
			</g>
			<g>
				<path fill="#272B33" d="M155.052,176.252c-0.114,1.988-0.446,3.962-0.907,5.914c-0.457,1.954-1.108,3.882-2.105,5.695
					c-0.25,0.453-0.529,0.895-0.834,1.324c-0.321,0.42-0.658,0.832-1.049,1.21c-0.389,0.376-0.815,0.73-1.297,1.02
					c-0.476,0.294-1.002,0.537-1.56,0.683c-0.272,0.098-0.56,0.128-0.847,0.167c-0.287,0.055-0.573,0.05-0.859,0.038
					c-0.289,0.002-0.572-0.02-0.848-0.08c-0.275-0.054-0.564-0.079-0.822-0.175l-0.792-0.25l-0.743-0.333
					c-0.503-0.213-0.935-0.518-1.404-0.776l0.416,0.151c-1.018-0.126-1.897-0.352-2.801-0.69c-0.896-0.324-1.758-0.762-2.56-1.31
					c-0.401-0.273-0.793-0.563-1.147-0.908c-0.381-0.312-0.691-0.698-1.013-1.075c-0.339-0.363-0.555-0.82-0.833-1.229
					c-0.248-0.428-0.406-0.901-0.608-1.352c-0.161-0.464-0.255-0.946-0.381-1.418c-0.106-0.476-0.116-0.959-0.174-1.438
					c-0.075-0.483-0.008-0.953-0.003-1.428l0.029-0.711l0.003-0.089l0.001-0.022l0.013-0.1l0.008-0.041l0.037-0.177
					c0.028-0.123,0.054-0.255,0.086-0.367c0.24-0.928,0.574-1.816,1.019-2.668c0.467-0.837,0.979-1.672,1.704-2.36
					c0.32-0.375,0.751-0.653,1.143-0.961c0.419-0.271,0.877-0.503,1.335-0.701c0.955-0.332,1.954-0.483,2.923-0.428
					c0.479,0.059,0.971,0.062,1.428,0.177l1.363,0.368c0.441,0.149,0.854,0.361,1.277,0.539l0.631,0.279
					c0.256,0.126,0.395,0.221,0.602,0.333c1.531,0.843,3.082,1.674,4.68,2.391c0.8,0.355,1.613,0.681,2.449,0.923
					c0.419,0.111,0.841,0.217,1.271,0.251C154.297,176.663,154.779,176.628,155.052,176.252z M155.052,176.252
					c-0.211,0.418-0.733,0.546-1.171,0.57c-0.455,0.031-0.908-0.011-1.352-0.086c-0.887-0.154-1.752-0.396-2.603-0.668
					c-1.702-0.547-3.36-1.209-4.978-1.964c-0.19-0.083-0.434-0.212-0.582-0.265l-0.602-0.209c-0.4-0.132-0.795-0.296-1.197-0.402
					l-1.211-0.255c-0.403-0.079-0.807-0.046-1.205-0.08c-0.797-0.001-1.559,0.171-2.262,0.454c-0.334,0.176-0.673,0.351-0.983,0.567
					c-0.287,0.255-0.61,0.459-0.853,0.773c-0.548,0.547-0.947,1.257-1.316,1.967c-0.348,0.728-0.609,1.513-0.811,2.294l-0.062,0.279
					l-0.03,0.147l-0.007,0.041c0.004-0.032-0.013,0.085,0.009-0.068v0.009v0.02l-0.001,0.077l-0.015,0.613
					c0.002,0.406-0.061,0.823,0.015,1.217c0.058,0.395,0.062,0.805,0.155,1.188c0.111,0.377,0.186,0.768,0.318,1.135
					c0.168,0.35,0.291,0.723,0.486,1.057c0.223,0.317,0.371,0.683,0.641,0.967c0.25,0.297,0.484,0.608,0.793,0.859
					c0.274,0.279,0.592,0.517,0.918,0.745c0.649,0.456,1.369,0.835,2.134,1.121c0.745,0.288,1.581,0.53,2.313,0.646l0.217,0.034
					l0.201,0.117c0.393,0.228,0.768,0.518,1.174,0.701l0.604,0.299l0.62,0.217c0.206,0.09,0.417,0.104,0.625,0.156
					c0.209,0.057,0.418,0.079,0.627,0.081c0.209,0.017,0.419,0.032,0.624,0.001c0.206-0.017,0.416-0.02,0.614-0.084
					c0.408-0.081,0.805-0.235,1.183-0.44c0.381-0.199,0.739-0.462,1.079-0.755c0.341-0.293,0.652-0.633,0.955-0.984
					c0.293-0.362,0.579-0.735,0.84-1.133c0.521-0.795,0.977-1.649,1.383-2.531c0.411-0.881,0.779-1.79,1.11-2.715
					C154.107,180.107,154.623,178.193,155.052,176.252z"/>
			</g>
			<g>
				<path fill="#272B33" d="M167.982,183.919c-0.94,1.366-2.051,2.604-3.246,3.775c-1.223,1.141-2.535,2.228-4.188,2.961
					c-0.417,0.175-0.856,0.338-1.338,0.421c-0.481,0.077-1,0.127-1.539,0.006c-0.541-0.083-1.062-0.356-1.505-0.692
					c-0.208-0.177-0.387-0.379-0.575-0.575c-0.146-0.21-0.292-0.423-0.426-0.643c-0.213-0.44-0.413-0.889-0.524-1.332
					c-0.154-0.448-0.203-0.884-0.295-1.326c-0.063-0.438-0.102-0.871-0.146-1.307l-0.035-1.29l0.006,0.109
					c-0.029-0.67,0.075-1.017,0.189-1.474c0.115-0.43,0.281-0.823,0.455-1.211c0.371-0.754,0.809-1.459,1.334-2.069
					c0.246-0.324,0.522-0.61,0.799-0.897c0.268-0.296,0.552-0.57,0.85-0.826c0.296-0.258,0.574-0.541,0.896-0.762l0.935-0.699
					c0.312-0.233,0.646-0.428,0.965-0.642c0.325-0.207,0.644-0.426,0.984-0.604c0.682-0.354,1.334-0.755,2.032-1.066
					c0.703-0.302,1.38-0.647,2.095-0.91c0.712-0.269,1.429-0.521,2.146-0.761c-0.632,0.423-1.264,0.838-1.9,1.234
					c-0.631,0.407-1.244,0.839-1.863,1.255c-0.62,0.413-1.205,0.873-1.805,1.304c-0.301,0.215-0.57,0.469-0.863,0.69
					c-0.283,0.234-0.582,0.449-0.85,0.696l-0.805,0.736c-0.277,0.238-0.506,0.516-0.766,0.764c-0.26,0.25-0.5,0.513-0.721,0.79
					c-0.23,0.27-0.463,0.538-0.653,0.828c-0.417,0.562-0.76,1.154-1.046,1.75c-0.125,0.302-0.248,0.605-0.32,0.904
					c-0.052,0.152-0.057,0.293-0.092,0.439c-0.014,0.118-0.021,0.312-0.021,0.312l0.006,0.109l0.037,1.17
					c0.033,0.381,0.06,0.766,0.104,1.141c0.072,0.36,0.104,0.747,0.218,1.078c0.08,0.357,0.219,0.659,0.35,0.962
					c0.084,0.127,0.158,0.261,0.232,0.396l0.274,0.312c0.204,0.16,0.409,0.313,0.685,0.366c0.258,0.086,0.578,0.077,0.904,0.046
					c0.329-0.041,0.679-0.115,1.029-0.227c0.703-0.225,1.404-0.576,2.088-0.964c0.691-0.384,1.367-0.817,2.025-1.287
					C165.43,185.995,166.705,184.969,167.982,183.919z"/>
			</g>
			<g>
				<path fill="#272B33" d="M170.514,159.856c0,0-1.006,0.674-2.514,1.685c-0.368,0.25-0.766,0.521-1.188,0.808
					c-0.414,0.288-0.851,0.592-1.302,0.907c-0.452,0.307-0.89,0.669-1.358,0.994c-0.44,0.364-0.926,0.685-1.362,1.063
					c-0.447,0.365-0.906,0.718-1.324,1.101c-0.425,0.376-0.866,0.723-1.243,1.111c-0.392,0.374-0.785,0.725-1.119,1.093
					c-0.34,0.365-0.699,0.686-0.976,1.026c-0.284,0.334-0.565,0.632-0.817,0.899c-0.218,0.287-0.424,0.531-0.595,0.736
					c-0.343,0.407-0.56,0.64-0.56,0.64s0.062-0.3,0.207-0.823c0.076-0.26,0.162-0.582,0.287-0.942
					c0.148-0.346,0.32-0.738,0.529-1.158c0.188-0.435,0.459-0.86,0.756-1.309c0.279-0.462,0.611-0.923,0.998-1.363
					c0.367-0.459,0.769-0.914,1.217-1.337c0.423-0.45,0.914-0.834,1.391-1.237c0.971-0.783,2.025-1.45,3.051-1.992
					c1.025-0.543,2.024-0.963,2.906-1.246C169.254,159.916,170.514,159.856,170.514,159.856z"/>
			</g>
			<g>
				<path fill="#272B33" d="M173.518,155.346c-0.86-0.78-1.764-1.48-2.695-2.104c-0.235-0.154-0.467-0.309-0.707-0.448
					c-0.24-0.139-0.469-0.295-0.719-0.411c-0.486-0.26-0.984-0.471-1.479-0.681c-0.25-0.092-0.507-0.163-0.757-0.245
					c-0.248-0.095-0.511-0.119-0.763-0.173c-0.252-0.062-0.504-0.113-0.76-0.118c-0.254-0.009-0.507-0.062-0.758-0.041l-0.749,0.055
					c-0.247,0.024-0.485,0.11-0.729,0.148l-0.365,0.074l-0.352,0.137l-0.701,0.27l0.289-0.206c-0.186,0.206-0.404,0.465-0.6,0.715
					l-0.596,0.768c-0.393,0.519-0.754,1.062-1.105,1.613c-0.332,0.562-0.677,1.117-0.984,1.695
					c-0.164,0.284-0.293,0.584-0.441,0.876c-0.15,0.291-0.275,0.593-0.41,0.892c-0.129,0.301-0.283,0.595-0.386,0.906l-0.344,0.925
					c-0.187,0.628-0.437,1.25-0.563,1.901l-0.24,0.973l-0.172,0.991c-0.076,0.332-0.113,0.667-0.144,1.005l-0.13,1.024
					c-0.12-0.671-0.295-1.358-0.323-2.053c-0.052-0.695-0.075-1.398-0.021-2.099c0.015-0.353,0.043-0.704,0.101-1.051
					c0.051-0.348,0.087-0.701,0.153-1.048l0.242-1.032c0.071-0.349,0.193-0.68,0.293-1.021c0.098-0.341,0.213-0.677,0.352-1.002
					c0.136-0.326,0.253-0.663,0.406-0.982c0.287-0.647,0.601-1.285,0.96-1.897c0.364-0.607,0.743-1.208,1.159-1.786
					c0.209-0.288,0.414-0.58,0.647-0.852c0.231-0.281,0.456-0.538,0.733-0.831l0.147-0.154l0.144-0.052l0.91-0.331l0.457-0.158
					l0.479-0.091c0.319-0.053,0.64-0.135,0.963-0.14l0.972,0.002c0.322,0.003,0.637,0.082,0.953,0.122
					c0.319,0.036,0.625,0.12,0.926,0.216c0.299,0.102,0.606,0.178,0.883,0.321c0.281,0.131,0.568,0.252,0.842,0.395l0.79,0.463
					c0.256,0.165,0.491,0.356,0.735,0.533c0.246,0.172,0.463,0.38,0.691,0.572c0.23,0.188,0.441,0.398,0.646,0.614
					c0.416,0.422,0.81,0.862,1.158,1.334C172.917,154.343,173.24,154.833,173.518,155.346z"/>
			</g>
			<g>
				<path fill="#272B33" d="M167.85,147.919c0,0-0.345-0.25-0.925-0.704c-0.581-0.453-1.399-1.108-2.358-1.905
					c-0.479-0.392-0.998-0.817-1.547-1.266c-0.271-0.23-0.554-0.447-0.844-0.652l-0.432-0.326l-0.387-0.234l-0.094-0.059
					l-0.046-0.03l-0.022-0.015l-0.006-0.004c-0.049-0.017,0.396,0.13,0.203,0.067l-0.019-0.002l-0.073-0.01
					c-0.012,0-0.086-0.017-0.007,0.01c0.095,0.033,0.212,0.025,0.296-0.015c0.02,0.009-0.086,0.075-0.183,0.187
					c-0.202,0.213-0.425,0.518-0.642,0.819c-0.432,0.618-0.832,1.312-1.201,2.021c-0.389,0.702-0.75,1.424-1.074,2.149
					c-0.314,0.729-0.657,1.436-0.922,2.145c-0.555,1.41-0.987,2.753-1.262,3.929c-0.262,1.175-0.354,2.181-0.313,2.895
					c0.032,0.351,0.049,0.642,0.101,0.83c0.041,0.194,0.062,0.297,0.062,0.297s-0.057-0.089-0.164-0.257
					c-0.113-0.167-0.252-0.43-0.389-0.787c-0.271-0.71-0.479-1.81-0.438-3.116c0.029-1.306,0.279-2.812,0.732-4.358
					c0.232-0.771,0.483-1.567,0.817-2.345c0.326-0.78,0.685-1.562,1.085-2.328c0.422-0.756,0.875-1.497,1.402-2.209
					c0.266-0.36,0.546-0.701,0.931-1.039c0.192-0.167,0.407-0.346,0.784-0.51c0.18-0.064,0.393-0.097,0.584-0.088
					c0.126,0.005,0.102,0.012,0.139,0.017l0.071,0.016l0.019,0.004c-0.188-0.062,0.264,0.086,0.221,0.074l0.009,0.006l0.038,0.026
					l0.076,0.052l0.15,0.104c0.194,0.139,0.402,0.28,0.573,0.419l0.435,0.414c0.289,0.274,0.557,0.547,0.797,0.818
					c0.509,0.528,0.945,1.058,1.346,1.547C166.98,146.458,167.85,147.919,167.85,147.919z"/>
			</g>
			<g>
				<path fill="#272B33" d="M173.518,149.845c-0.287-1.597-0.479-3.194-0.615-4.791l-0.002-0.027l0.027-0.15
					c0.352-1.847,0.715-3.714,0.934-5.541c0.111-0.902,0.212-1.834,0.133-2.621c-0.018-0.194-0.059-0.362-0.088-0.504
					c-0.034-0.108-0.092-0.205-0.037-0.139c0.062,0.065,0.193,0.061,0.134,0.053c-0.019,0.004-0.127,0.042-0.103,0.022l-0.325,0.147
					c-0.243,0.098-0.382,0.196-0.538,0.287c-0.152,0.074-0.34,0.217-0.512,0.327c-0.35,0.245-0.694,0.533-1.045,0.838
					c-0.691,0.625-1.471,1.277-2.34,1.827c-0.434,0.274-0.908,0.498-1.389,0.675c-0.477,0.193-0.979,0.307-1.475,0.391
					c-0.5,0.07-0.993,0.117-1.487,0.09c-0.49,0.019-0.979-0.093-1.455-0.143c0.476-0.116,0.947-0.18,1.399-0.321
					c0.457-0.118,0.896-0.269,1.322-0.435c0.416-0.189,0.824-0.375,1.2-0.611c0.384-0.224,0.729-0.497,1.068-0.783
					c0.688-0.558,1.264-1.262,1.948-1.955c0.344-0.351,0.703-0.708,1.107-1.047c0.219-0.165,0.395-0.337,0.66-0.492
					c0.251-0.157,0.516-0.318,0.714-0.403c0.2-0.118,1.42-0.784,2.384,0.021c0.435,0.372,0.549,0.747,0.676,1.08
					c0.095,0.319,0.135,0.622,0.156,0.903c0.067,1.12-0.07,2.098-0.234,3.08c-0.375,1.943-0.922,3.791-1.633,5.608l0.026-0.177
					C173.996,146.651,173.803,148.248,173.518,149.845z"/>
			</g>
			<g>
				<path fill="#272B33" d="M141.163,87.919l4.188-1.034c0.694-0.185,1.404-0.311,2.108-0.46l2.119-0.435l2.122-0.436
					c0.709-0.138,1.41-0.317,2.133-0.383c1.438-0.171,2.88-0.29,4.33-0.344c2.896-0.116,5.829,0.039,8.709,0.715
					c1.436,0.349,2.863,0.851,4.174,1.653c0.648,0.411,1.271,0.884,1.811,1.463c0.533,0.583,0.98,1.253,1.314,1.981l0.046,0.1
					l0.011,0.144c0.08,1.094,0.19,2.203,0.326,3.297c0.137,1.096,0.315,2.18,0.537,3.239c0.148,0.497,0.234,1.066,0.432,1.502
					l0.291,0.739l0.32,0.775c0.195,0.538,0.391,1.167,0.534,1.721c0.136,0.561,0.282,1.122,0.386,1.683
					c0.236,1.123,0.402,2.246,0.547,3.387c0.047,0.562,0.166,1.167,0.084,1.844c-0.053,0.597-0.121,1.149-0.197,1.718
					c-0.312,2.255-0.747,4.484-1.312,6.689c-0.276,1.104-0.6,2.197-0.948,3.283c-0.36,1.083-0.736,2.164-1.188,3.22
					c-0.434,1.062-0.934,2.102-1.475,3.124c-0.565,1.01-1.149,2.018-1.86,2.954c-0.685,0.951-1.472,1.843-2.354,2.645
					c-0.875,0.811-1.877,1.5-2.94,2.078c-1.089,0.527-2.237,0.984-3.443,1.163c-1.196,0.243-2.413,0.219-3.608,0.138l0.322-0.024
					c-1.421,0.318-2.768,0.472-4.166,0.558c-1.388,0.072-2.785,0.048-4.176-0.104c-2.771-0.298-5.572-1.126-7.951-2.743
					c-1.183-0.804-2.256-1.786-3.132-2.919c-0.879-1.132-1.543-2.403-2.083-3.705c-0.476-1.323-0.884-2.67-1.08-4.044
					c-0.234-1.374-0.326-2.747-0.414-4.083c-0.166-2.694-0.291-5.389-0.314-8.093c-0.021-1.351,0.008-2.707,0.064-4.063
					c0.086-1.36,0.184-2.716,0.584-4.099c0.455-1.328,1.059-2.51,1.606-3.746l1.667-3.669c0.545-1.227,1.061-2.465,1.531-3.718
					c0.232-0.628,0.451-1.263,0.604-1.912c0.079-0.324,0.136-0.654,0.149-0.986C141.589,88.418,141.52,88.007,141.163,87.919z
					 M141.163,87.919c0.364,0.062,0.473,0.492,0.474,0.811c0.008,0.34-0.029,0.679-0.088,1.012
					c-0.115,0.668-0.294,1.321-0.486,1.968c-0.389,1.294-0.867,2.555-1.35,3.813l-1.495,3.75c-0.485,1.244-1.043,2.5-1.399,3.733
					c-0.297,1.217-0.33,2.571-0.37,3.89c-0.017,1.331-0.005,2.665,0.053,4.001c0.101,2.672,0.301,5.346,0.544,8.013
					c0.126,1.342,0.254,2.655,0.51,3.924c0.219,1.286,0.637,2.513,1.102,3.705c0.518,1.169,1.164,2.266,1.935,3.26
					c0.78,0.988,1.724,1.833,2.769,2.529c2.095,1.396,4.609,2.13,7.17,2.38c1.283,0.127,2.582,0.138,3.878,0.059
					c1.284-0.087,2.614-0.26,3.815-0.542l0.143-0.034l0.18,0.01c1.035,0.054,2.076,0.07,3.077-0.147
					c1.014-0.155,1.966-0.555,2.883-1.003c0.896-0.501,1.748-1.092,2.509-1.812c0.762-0.715,1.469-1.503,2.104-2.361
					c0.654-0.841,1.203-1.772,1.74-2.708c0.517-0.951,0.996-1.926,1.418-2.933c0.438-1,0.809-2.032,1.166-3.068
					c0.344-1.042,0.666-2.093,0.942-3.159c0.566-2.126,1.011-4.295,1.332-6.471c0.077-0.54,0.151-1.098,0.203-1.615
					c0.071-0.44-0.021-0.955-0.063-1.503c-0.127-1.08-0.276-2.175-0.494-3.245c-0.092-0.542-0.226-1.065-0.348-1.594
					c-0.135-0.529-0.264-0.974-0.438-1.49l-0.315-0.778l-0.303-0.832c-0.234-0.6-0.293-1.155-0.446-1.734
					c-0.204-1.138-0.356-2.27-0.464-3.399c-0.107-1.131-0.188-2.253-0.238-3.394l0.057,0.244c-0.488-1.181-1.389-2.173-2.514-2.905
					c-1.123-0.735-2.424-1.244-3.769-1.61c-2.7-0.731-5.56-0.926-8.401-0.969c-1.425-0.014-2.854,0.036-4.277,0.139
					c-0.715,0.032-1.418,0.177-2.125,0.28l-2.12,0.333c-1.414,0.229-2.833,0.429-4.248,0.684L141.163,87.919z"/>
			</g>
			<g>
				<path fill="#272B33" d="M200.83,127.59c-1.318-0.625-2.6-1.326-3.862-2.057c-1.258-0.74-2.507-1.5-3.718-2.319
					c-1.223-0.802-2.411-1.658-3.584-2.536l-1.73-1.359c-0.588-0.441-1.123-0.946-1.683-1.425c-0.555-0.482-1.11-0.964-1.636-1.484
					c-0.528-0.516-1.075-1.011-1.588-1.544l-1.496-1.646c-0.506-0.542-0.938-1.156-1.409-1.73l-0.69-0.881l-0.619-0.941
					c-0.395-0.641-0.849-1.238-1.162-1.937c-0.327-0.686-0.713-1.338-0.989-2.051c-0.251-0.727-0.513-1.45-0.746-2.18l0.044,0.128
					c-0.652-1.596-1.345-3.194-2.046-4.779c-0.685-1.596-1.401-3.175-2.131-4.749c-0.724-1.577-1.485-3.133-2.291-4.665
					c-0.41-0.761-0.835-1.515-1.302-2.241c-0.232-0.363-0.485-0.711-0.75-1.053c-0.276-0.324-0.562-0.658-0.943-0.876
					c0.416,0.15,0.768,0.437,1.107,0.719c0.33,0.295,0.64,0.617,0.929,0.951c0.583,0.666,1.118,1.37,1.618,2.094
					c1.017,1.441,1.918,2.95,2.797,4.469c1.734,3.054,3.293,6.183,4.752,9.382l0.045,0.128c0.248,0.639,0.472,1.284,0.705,1.927
					c0.255,0.636,0.625,1.235,0.929,1.854c0.286,0.63,0.729,1.189,1.101,1.779l0.572,0.882l0.643,0.841
					c0.441,0.552,0.838,1.137,1.316,1.663l1.413,1.597l1.479,1.548c0.484,0.524,1.008,1.014,1.529,1.505
					c1.029,0.997,2.105,1.951,3.176,2.912c1.104,0.927,2.193,1.871,3.318,2.777c0.555,0.466,1.137,0.894,1.696,1.352
					c0.562,0.458,1.142,0.891,1.716,1.333C198.49,125.859,199.646,126.739,200.83,127.59z"/>
			</g>
			<g>
				<path fill="#272B33" d="M209.496,159.919c-0.396,1.483-0.73,2.979-1.04,4.477c-0.17,0.746-0.285,1.501-0.417,2.253
					c-0.146,0.75-0.221,1.508-0.312,2.262c-0.112,0.754-0.138,1.51-0.164,2.263c-0.068,0.757,0,1.497,0.064,2.231l0.037,0.551
					l0.054,0.604c-0.003,0.136-0.011,0.275-0.022,0.412c-0.036,0.153-0.082,0.319-0.188,0.482c-0.287,0.429-0.82,0.429-1.072,0.373
					c-0.998-0.289-1.553-0.772-2.222-1.208c-2.522-1.809-4.889-3.705-7.497-5.195c-2.58-1.476-5.392-2.653-8.218-2.63l-0.62,0.005
					l-0.229-0.589c-1.129-2.896-2.172-5.803-3.162-8.738l-1.455-4.412c-0.46-1.479-0.941-2.952-1.358-4.446
					c-0.44-1.485-0.835-2.987-1.241-4.484c-0.373-1.509-0.769-3.01-1.091-4.535c-0.168-0.76-0.347-1.517-0.476-2.289
					c-0.133-0.771-0.295-1.532-0.402-2.309l-0.32-2.332l-0.191-2.364l0.007,0.07c-0.084-0.742-0.121-1.435-0.138-2.154
					c-0.014-0.713,0-1.429,0.062-2.147c0.134-1.431,0.368-2.897,1.095-4.292c0.19-0.345,0.414-0.679,0.683-0.991
					c0.28-0.306,0.601-0.586,0.969-0.803c0.37-0.215,0.775-0.368,1.187-0.447c0.414-0.084,0.818-0.083,1.22-0.067
					c0.389,0.051,0.776,0.106,1.136,0.222c0.373,0.087,0.707,0.242,1.055,0.372c0.338,0.144,0.654,0.316,0.981,0.474l0.927,0.544
					l-0.172-0.069c1.441,0.388,2.825,0.842,4.196,1.376c0.684,0.27,1.358,0.555,2.026,0.861c0.338,0.143,0.662,0.318,0.994,0.477
					c0.329,0.159,0.657,0.324,0.978,0.508c0.649,0.341,1.272,0.732,1.892,1.129c0.309,0.199,0.598,0.431,0.896,0.644
					c0.304,0.207,0.578,0.453,0.854,0.699c0.274,0.245,0.562,0.474,0.795,0.765c0.233,0.285,0.51,0.532,0.705,0.846
					c0.196,0.312,0.415,0.607,0.59,0.928l0.422,1.008l-0.508-0.959c-0.199-0.299-0.439-0.571-0.656-0.855
					c-0.215-0.286-0.511-0.505-0.76-0.76c-0.248-0.257-0.539-0.468-0.824-0.687c-0.28-0.22-0.562-0.44-0.873-0.623
					c-0.306-0.188-0.599-0.393-0.912-0.567c-0.629-0.346-1.26-0.686-1.916-0.976c-0.322-0.157-0.652-0.297-0.986-0.431
					c-0.333-0.133-0.659-0.282-0.999-0.4c-0.672-0.255-1.351-0.489-2.034-0.708c-1.365-0.431-2.76-0.833-4.14-1.128l-0.067-0.014
					l-0.104-0.055l-0.881-0.462c-0.301-0.125-0.596-0.269-0.897-0.38c-0.304-0.095-0.604-0.22-0.907-0.271
					c-0.305-0.086-0.603-0.103-0.896-0.136c-0.289,0.002-0.574,0.009-0.838,0.075c-0.262,0.061-0.504,0.165-0.727,0.302
					c-0.221,0.141-0.416,0.326-0.597,0.534c-0.173,0.218-0.325,0.462-0.46,0.726c-0.521,1.08-0.715,2.4-0.783,3.704
					c-0.029,0.657-0.033,1.321-0.006,1.985c0.027,0.658,0.081,1.342,0.166,1.968l0.007,0.07l0.229,2.245l0.356,2.246
					c0.12,0.749,0.295,1.494,0.438,2.241c0.145,0.747,0.315,1.492,0.488,2.237c0.326,1.492,0.728,2.973,1.104,4.457
					c0.413,1.477,0.812,2.957,1.259,4.426c0.867,2.944,1.771,5.882,2.746,8.799c0.977,2.913,1.971,5.832,3.012,8.711l-0.85-0.583
					c1.669,0.024,3.283,0.396,4.791,0.948c1.507,0.563,2.908,1.317,4.244,2.142c1.334,0.828,2.594,1.748,3.82,2.692
					c1.228,0.94,2.399,1.945,3.588,2.875c0.571,0.443,1.246,0.947,1.726,1.104c0.11,0.012,0.022,0.004-0.035,0.088
					c-0.008,0.005,0.003-0.022,0.019-0.048c0.002-0.054,0.011-0.106,0.021-0.161l-0.033-1.14c-0.019-0.798-0.033-1.59,0.086-2.36
					c0.08-0.777,0.158-1.551,0.323-2.308c0.144-0.76,0.271-1.523,0.468-2.269c0.184-0.749,0.351-1.5,0.57-2.238
					C208.477,162.819,208.979,161.363,209.496,159.919z"/>
			</g>
			<g>
				<path fill="#272B33" d="M209.496,178.252c0,0,1.396,3.028,3.336,7.609c0.973,2.287,2.105,4.955,3.32,7.814
					c1.195,2.865,2.515,5.893,3.822,8.926c0.683,1.498,1.365,2.996,2.039,4.47c0.682,1.47,1.437,2.85,2.121,4.226
					c0.178,0.335,0.344,0.695,0.523,1.002c0.191,0.331,0.382,0.658,0.57,0.981c0.371,0.65,0.734,1.286,1.088,1.905
					c0.73,1.211,1.422,2.356,2.059,3.413c0.67,1.038,1.268,2.004,1.839,2.833c0.558,0.839,1.071,1.551,1.481,2.156
					c0.425,0.591,0.724,1.096,0.9,1.444c0.151,0.362,0.232,0.555,0.232,0.555s-0.113-0.173-0.326-0.499
					c-0.23-0.311-0.615-0.723-1.116-1.25c-0.491-0.532-1.122-1.161-1.778-1.938c-0.682-0.759-1.403-1.653-2.174-2.644
					c-0.763-0.995-1.574-2.1-2.386-3.282c-0.776-1.209-1.672-2.38-2.438-3.794c-0.389-0.687-0.782-1.385-1.184-2.092
					c-0.398-0.708-0.822-1.419-1.15-2.171c-0.702-1.487-1.418-2.998-2.131-4.509c-0.64-1.539-1.277-3.078-1.906-4.593
					c-0.652-1.506-1.157-3.038-1.719-4.493c-0.559-1.457-1.052-2.881-1.504-4.237c-0.463-1.352-0.885-2.636-1.258-3.826
					C210.259,181.499,209.496,178.252,209.496,178.252z"/>
			</g>
			<g>
				<path fill="#272B33" d="M200.83,183.586c0,0,0.322,0.821,0.889,2.258c0.287,0.715,0.637,1.583,1.035,2.579
					c0.41,0.989,0.873,2.104,1.377,3.322c0.499,1.217,1.115,2.503,1.698,3.889c0.604,1.376,1.344,2.776,2.021,4.264
					c0.746,1.448,1.569,2.916,2.393,4.403c0.46,0.708,0.923,1.423,1.388,2.141l0.696,1.072l0.788,1.059
					c2.095,2.821,4.188,5.642,6.153,8.286c1.961,2.655,3.765,5.162,5.248,7.358c1.494,2.188,2.666,4.072,3.401,5.442
					c0.377,0.68,0.606,1.253,0.761,1.64c0.111,0.409,0.152,0.621,0.152,0.621s-0.081-0.212-0.252-0.577
					c-0.21-0.354-0.542-0.854-0.998-1.471c-0.913-1.233-2.309-2.929-3.982-4.966c-1.685-2.03-3.65-4.399-5.726-6.97
					c-1.029-1.291-2.118-2.607-3.174-3.986c-1.06-1.372-2.144-2.778-3.196-4.195l-0.773-1.069l-0.727-1.145
					c-0.479-0.761-0.956-1.519-1.429-2.271c-0.452-0.761-0.81-1.558-1.2-2.326c-0.374-0.776-0.782-1.527-1.112-2.293
					c-0.646-1.537-1.286-3.018-1.808-4.45c-0.512-1.437-1.01-2.788-1.395-4.059C201.449,187.076,200.83,183.586,200.83,183.586z"/>
			</g>
			<g>
				<path fill="#272B33" d="M252.162,246.276c0,0-0.077-0.018-0.221-0.05c-0.143-0.037-0.36-0.067-0.618-0.153
					c-0.261-0.084-0.58-0.18-0.939-0.314c-0.358-0.132-0.782-0.262-1.194-0.477c-0.426-0.198-0.887-0.415-1.36-0.668
					c-0.478-0.249-0.997-0.493-1.468-0.844c-0.483-0.331-0.997-0.658-1.496-1.022c-0.483-0.354-0.975-0.714-1.465-1.074
					c-0.482-0.368-0.973-0.777-1.43-1.068c-0.464-0.312-0.9-0.659-1.388-0.944c-0.927-0.611-1.854-1.159-2.622-1.71
					c-0.391-0.273-0.734-0.56-1.027-0.815c-0.283-0.292-0.521-0.541-0.688-0.768c-0.292-0.509-0.415-0.781-0.415-0.781
					s0.277,0.19,0.688,0.491c0.227,0.133,0.531,0.252,0.836,0.419c0.34,0.131,0.725,0.278,1.143,0.438
					c0.438,0.151,0.893,0.311,1.393,0.516c0.498,0.192,1.025,0.397,1.555,0.673c0.531,0.247,1.092,0.544,1.639,0.891
					c0.582,0.325,1.034,0.705,1.532,1.07c0.483,0.381,0.969,0.763,1.444,1.139c0.463,0.365,0.894,0.756,1.324,1.118
					c0.424,0.375,0.854,0.709,1.262,1.028c0.412,0.314,0.787,0.636,1.138,0.935c0.348,0.302,0.68,0.546,0.968,0.786
					c0.294,0.229,0.542,0.45,0.75,0.628C251.921,246.073,252.162,246.276,252.162,246.276z"/>
			</g>
			<g>
				<path fill="#272B33" d="M248.162,246.276c0,0-0.576,0.686-1.594,1.454c-1.004,0.793-2.451,1.66-4.004,2.322
					c-1.551,0.662-3.221,1.109-4.547,1.166c-0.654,0.05-1.227-0.02-1.605-0.1c-0.391-0.115-0.582-0.201-0.582-0.201
					s0.225-0.084,0.559-0.195c0.168-0.061,0.372-0.176,0.598-0.262c0.226-0.088,0.479-0.244,0.754-0.356
					c1.09-0.547,2.543-1.249,4.044-1.892c1.502-0.634,3.051-1.196,4.276-1.507C247.273,246.37,248.162,246.276,248.162,246.276z"/>
			</g>
			<g>
				<path fill="#272B33" d="M173.518,336.75c0,0,0.436,0.569,0.86,1.444c0.453,0.87,0.89,2.05,1.237,3.233
					c0.175,0.591,0.326,1.188,0.458,1.742c0.132,0.557,0.239,1.082,0.333,1.533c0.06,0.219,0.087,0.443,0.142,0.617
					c0.058,0.174,0.077,0.365,0.13,0.486c0.092,0.261,0.152,0.445,0.152,0.445s-0.16-0.045-0.454-0.187
					c-0.151-0.069-0.291-0.185-0.464-0.319c-0.184-0.136-0.348-0.307-0.52-0.504c-0.72-0.779-1.328-2-1.697-3.256
					c-0.362-1.26-0.5-2.562-0.438-3.561C173.293,337.435,173.518,336.75,173.518,336.75z"/>
			</g>
			<g>
				<path fill="#272B33" d="M164.811,341.501c0,0-0.008,0.869-0.178,2.072c-0.142,1.215-0.465,2.762-0.765,4.275
					c-0.075,0.377-0.15,0.753-0.224,1.124c-0.061,0.368-0.154,0.731-0.199,1.079c-0.062,0.352-0.125,0.689-0.153,1.006
					c-0.054,0.324-0.088,0.625-0.099,0.902c-0.026,0.289-0.03,0.545-0.014,0.773c0.012,0.232,0.002,0.455,0.053,0.614
					c0.064,0.34,0.103,0.571,0.103,0.571s-0.166-0.117-0.455-0.389c-0.159-0.131-0.291-0.32-0.426-0.559
					c-0.071-0.119-0.147-0.247-0.228-0.383c-0.064-0.137-0.107-0.287-0.166-0.445c-0.055-0.16-0.111-0.327-0.17-0.499
					c-0.041-0.173-0.067-0.353-0.104-0.539c-0.075-0.376-0.104-0.769-0.11-1.172c-0.022-0.41,0.011-0.817,0.048-1.237
					c0.024-0.422,0.119-0.83,0.185-1.248c0.335-1.65,0.991-3.186,1.646-4.255C164.186,342.115,164.811,341.501,164.811,341.501z"/>
			</g>
			<g>
				<path fill="#272B33" d="M172.163,363.587c0,0,0.183,1.252,0.454,3.449c0.249,2.197,0.681,5.33,1.086,9.098
					c0.412,3.77,0.908,8.16,1.375,12.869c0.201,2.375,0.541,4.748,0.811,7.18c0.068,0.605,0.139,1.217,0.209,1.828
					c0.086,0.729,0.18,1.254,0.223,1.949c0.117,1.338,0.176,2.57,0.253,3.846c0.09,2.529,0.179,5.061,0.267,7.551
					c0.085,2.486,0.096,4.938,0.133,7.309c0.053,4.74,0.028,9.166-0.057,12.959c-0.066,3.795-0.236,6.955-0.366,9.168
					c-0.049,1.104-0.173,1.975-0.225,2.562c-0.104,0.586-0.161,0.898-0.161,0.898s0.02-0.314,0.054-0.906
					c-0.014-0.592-0.032-1.459-0.058-2.562c-0.042-2.207-0.235-5.361-0.393-9.146c-0.164-3.783-0.354-8.197-0.558-12.928
					c-0.099-2.363-0.199-4.807-0.301-7.289c-0.11-2.479-0.222-4.998-0.333-7.516c-0.062-1.246-0.117-2.539-0.206-3.709
					c-0.019-0.562-0.138-1.275-0.181-1.793c-0.067-0.633-0.135-1.264-0.203-1.893c-0.274-2.514-0.512-5-0.658-7.352
					c-0.325-4.73-0.609-9.146-0.766-12.936c-0.181-3.787-0.254-6.949-0.332-9.159C172.171,364.853,172.163,363.587,172.163,363.587z
					"/>
			</g>
			<g>
				<path fill="#272B33" d="M180.136,453.587c0,0-0.471,0.201-1.223,0.648c-0.377,0.221-0.815,0.512-1.304,0.857
					c-0.482,0.354-0.989,0.791-1.512,1.283c-0.254,0.254-0.492,0.543-0.752,0.822c-0.223,0.311-0.474,0.611-0.699,0.941
					c-0.429,0.68-0.803,1.428-1.08,2.238c-0.282,0.812-0.426,1.693-0.504,2.596c-0.004,0.457-0.07,0.912-0.03,1.377l0.118,1.396
					c0.082,1.016,0.164,2.031,0.244,3.031c0.09,0.984,0.119,1.961,0.18,2.9c0.095,0.932-0.004,1.881-0.031,2.76
					c-0.033,0.881-0.091,1.711-0.146,2.475c-0.023,0.766-0.166,1.459-0.266,2.072c-0.096,0.611-0.201,1.143-0.283,1.578
					c-0.07,0.438-0.199,0.773-0.253,1.004c-0.062,0.229-0.098,0.352-0.098,0.352s-0.005-0.512-0.045-1.393
					c-0.022-0.439-0.052-0.975-0.085-1.588c-0.031-0.609-0.033-1.295-0.119-2.039c-0.071-0.744-0.146-1.547-0.196-2.395
					c-0.071-0.848-0.087-1.725-0.231-2.668c-0.11-0.936-0.258-1.9-0.35-2.887c-0.1-0.971-0.199-1.957-0.302-2.945l-0.101-1.604
					c-0.029-0.533,0.051-1.076,0.072-1.607c0.104-1.064,0.396-2.1,0.786-3.047c0.167-0.484,0.455-0.912,0.688-1.342
					c0.251-0.424,0.572-0.787,0.844-1.162c0.309-0.348,0.623-0.67,0.932-0.973c0.34-0.271,0.654-0.541,0.977-0.773
					c1.299-0.92,2.531-1.377,3.392-1.629C179.625,453.625,180.136,453.587,180.136,453.587z"/>
			</g>
			<g>
				<path fill="#272B33" d="M182.997,464.253c0,0,0.696,0.904,1.517,2.336c0.42,0.711,0.872,1.557,1.325,2.471
					c0.456,0.914,0.919,1.896,1.351,2.891c0.211,0.5,0.42,0.998,0.627,1.49c0.211,0.486,0.383,0.982,0.574,1.451
					c0.371,0.941,0.699,1.828,0.979,2.59c0.288,0.754,0.522,1.387,0.729,1.809c0.192,0.432,0.397,0.631,0.397,0.631
					s-0.067-0.021-0.195-0.064c-0.12-0.057-0.313-0.148-0.508-0.311c-0.405-0.312-0.914-0.83-1.427-1.502
					c-0.522-0.668-1.059-1.488-1.566-2.395c-0.516-0.902-1.007-1.893-1.445-2.9c-0.438-1.01-0.82-2.041-1.142-3.021
					c-0.325-0.979-0.582-1.908-0.764-2.719C183.066,465.394,182.997,464.253,182.997,464.253z"/>
			</g>
			<g>
				<path fill="#272B33" d="M180.136,464.253c0,0,0.603,0.535,1.261,1.443c0.685,0.896,1.418,2.168,2.008,3.5
					c0.586,1.334,1.027,2.729,1.222,3.834c0.222,1.092,0.205,1.891,0.205,1.891s-0.604-0.535-1.263-1.443
					c-0.687-0.896-1.418-2.168-2.006-3.502c-0.584-1.334-1.023-2.729-1.22-3.834C180.121,465.05,180.136,464.253,180.136,464.253z"
					/>
			</g>
			<g>
				<path fill="#272B33" d="M178.163,464.253c0,0,0.303,1.125,0.552,2.791c0.133,0.834,0.262,1.803,0.366,2.838
					c0.116,1.035,0.216,2.137,0.302,3.234c0.153,2.189,0.307,4.383,0.422,6.025c0.03,0.414,0.065,0.789,0.107,1.123
					c0.043,0.334,0.054,0.641,0.107,0.873c0.08,0.482,0.115,0.781,0.115,0.781s-0.184-0.215-0.484-0.633
					c-0.16-0.209-0.31-0.477-0.469-0.793c-0.173-0.314-0.354-0.676-0.494-1.084c-0.164-0.404-0.334-0.848-0.453-1.324
					c-0.143-0.475-0.285-0.979-0.377-1.506c-0.23-1.051-0.379-2.18-0.469-3.312c-0.09-1.131-0.098-2.264-0.063-3.324
					c0.036-1.061,0.122-2.049,0.247-2.893C177.797,465.363,178.163,464.253,178.163,464.253z"/>
			</g>
			<g>
				<path fill="#272B33" d="M176.085,464.253c0,0,0.435,1.203,0.832,3.031c0.211,0.91,0.414,1.979,0.589,3.123
					c0.182,1.146,0.328,2.373,0.459,3.598c0.125,1.229,0.207,2.457,0.248,3.615c0.034,0.578,0.031,1.141,0.035,1.674
					c0.016,0.529,0.029,1.02,0.027,1.482c0.02,1.842-0.137,3.145-0.137,3.145s-0.5-1.146-1-2.977
					c-0.274-0.918-0.498-1.99-0.678-3.137c-0.193-1.146-0.361-2.377-0.486-3.609c-0.134-1.232-0.188-2.471-0.22-3.633
					c-0.032-1.162-0.022-2.25,0.021-3.186C175.854,465.513,176.085,464.253,176.085,464.253z"/>
			</g>
			<g>
				<path fill="#272B33" d="M144.523,286.253c0,0-0.196-1.41-0.426-3.891c-0.108-1.24-0.229-2.746-0.351-4.479
					c-0.113-1.731-0.231-3.688-0.274-5.826c-0.048-2.139-0.084-4.459,0.021-6.917c0.097-2.457,0.234-5.058,0.706-7.744
					c0.091-0.672,0.233-1.349,0.407-2.03l0.242-1.027c0.103-0.342,0.231-0.684,0.349-1.027c0.124-0.344,0.233-0.691,0.37-1.033
					l0.423-0.953c0.294-0.646,0.601-1.277,0.915-1.912c1.251-2.535,2.656-5.025,3.969-7.516c0.654-1.237,1.309-2.488,1.747-3.709
					c0.217-0.585,0.351-1.252,0.28-1.535c-0.043-0.133-0.021-0.102-0.109-0.162l-0.014-0.012c-0.105-0.039,0.138,0.047,0.099,0.034
					l-0.03-0.01l-0.063-0.019c-0.029-0.01-0.043-0.012-0.005,0.004c0.045,0.019,0.104,0.021,0.14,0.017
					c-0.001,0.004-0.003,0.005-0.005,0.003c-0.029,0.006-0.118,0.032-0.221,0.089c-0.428,0.225-0.936,0.674-1.385,1.125
					c-0.461,0.455-0.902,0.954-1.328,1.462c-0.85,1.021-1.633,2.097-2.367,3.181c-2.928,4.352-5.154,8.779-6.698,12.697
					c-0.759,1.966-1.358,3.808-1.78,5.468c-0.423,1.661-0.652,3.145-0.757,4.371c-0.099,1.229-0.096,2.203-0.054,2.866
					c0.037,0.664,0.092,1.017,0.092,1.017s-0.092-0.344-0.2-1.004c-0.104-0.658-0.241-1.64-0.228-2.896
					c0.009-2.504,0.488-6.112,1.846-10.207c0.665-2.051,1.516-4.229,2.57-6.463c1.051-2.234,2.272-4.542,3.738-6.817
					c0.731-1.14,1.517-2.276,2.393-3.385c0.439-0.554,0.898-1.103,1.41-1.633c0.529-0.524,1.049-1.045,1.852-1.492
					c0.204-0.109,0.443-0.215,0.757-0.28l0.255-0.034c0.123-0.005,0.271,0.005,0.401,0.028c0.083,0.014,0.11,0.022,0.124,0.026
					l0.062,0.019l0.032,0.009c-0.017-0.009,0.244,0.092,0.158,0.062l0.101,0.053c0.547,0.244,1.021,0.898,1.115,1.456
					c0.116,0.556,0.069,1.03-0.009,1.44c-0.077,0.419-0.188,0.799-0.313,1.164c-0.512,1.447-1.174,2.727-1.838,4.002
					c-1.357,2.525-2.766,4.974-4.012,7.444c-0.303,0.618-0.605,1.233-0.906,1.847l-0.439,0.933
					c-0.125,0.295-0.229,0.603-0.344,0.899c-0.11,0.303-0.233,0.596-0.334,0.902l-0.248,0.949c-0.176,0.627-0.328,1.259-0.43,1.904
					c-0.498,2.556-0.758,5.102-0.949,7.515c-0.188,2.416-0.285,4.714-0.361,6.836c-0.127,4.246-0.167,7.798-0.133,10.282
					C144.51,284.832,144.523,286.253,144.523,286.253z"/>
			</g>
			<g>
				<path fill="#272B33" d="M157.984,243.919c-0.008-0.003-0.012,0.104-0.127,0.245c-0.061,0.074-0.144,0.16-0.246,0.215
					c-0.102,0.06-0.241,0.157-0.387,0.169c-0.146,0.029-0.324,0.057-0.511,0.051c-0.163-0.028-0.342-0.071-0.522-0.139
					c-0.375-0.127-0.608-0.384-0.885-0.641c-0.203-0.271-0.341-0.572-0.443-0.864c-0.11-0.292-0.08-0.581-0.059-0.837
					c0.039-0.502,0.248-0.865,0.247-0.865s0.429,0.14,0.798,0.39c0.207,0.11,0.361,0.296,0.551,0.426
					c0.089,0.07,0.175,0.142,0.246,0.225c0.078,0.073,0.133,0.179,0.199,0.25c0.063,0.063,0.125,0.128,0.172,0.209
					c0.051,0.079,0.092,0.176,0.135,0.223c0.041,0.062,0.078,0.142,0.119,0.23c0.047,0.076,0.09,0.147,0.131,0.213
					c0.054,0.085,0.107,0.13,0.171,0.2c0.065,0.062,0.125,0.126,0.182,0.164C157.875,243.879,157.992,243.919,157.984,243.919z"/>
			</g>
			<g>
				<path fill="#272B33" d="M156.157,248.606c0,0-0.076-0.08-0.208-0.222c-0.12-0.137-0.279-0.312-0.434-0.525
					c-0.152-0.212-0.328-0.44-0.459-0.688c-0.059-0.128-0.15-0.24-0.207-0.367c-0.072-0.121-0.109-0.26-0.174-0.38
					c-0.06-0.12-0.121-0.239-0.164-0.369c-0.049-0.125-0.074-0.266-0.133-0.374c-0.05-0.116-0.088-0.24-0.123-0.367
					c-0.037-0.123-0.048-0.272-0.099-0.372c-0.168-0.429-0.259-0.933-0.259-0.933s0.432-0.091,1.049,0.099
					c0.314,0.083,0.582,0.309,0.884,0.555c0.298,0.252,0.476,0.605,0.672,0.952c0.078,0.18,0.128,0.365,0.174,0.551
					c0.042,0.185,0.093,0.367,0.087,0.548c0.008,0.361-0.014,0.696-0.117,0.982C156.499,248.27,156.157,248.606,156.157,248.606z"/>
			</g>
			<g>
				<path fill="#272B33" d="M147.372,69.127c0,0-0.028,1.219-0.36,2.965c-0.154,0.876-0.386,1.885-0.685,2.949
					c-0.293,1.066-0.653,2.19-1.069,3.295c-0.417,1.104-0.896,2.189-1.394,3.185c-0.501,0.997-1.03,1.903-1.548,2.645
					c-0.508,0.749-1.028,1.32-1.405,1.693c-0.425,0.352-0.664,0.518-0.664,0.518s0.124-0.293,0.336-0.745
					c0.091-0.242,0.188-0.542,0.321-0.863c0.115-0.334,0.244-0.71,0.387-1.122c0.141-0.41,0.271-0.868,0.445-1.329
					c0.16-0.471,0.31-0.978,0.505-1.481c0.346-1.031,0.735-2.121,1.146-3.208c0.409-1.087,0.85-2.164,1.282-3.17
					c0.431-1.006,0.858-1.938,1.257-2.729C146.706,70.146,147.373,69.127,147.372,69.127z"/>
			</g>
			<g>
				<path fill="#272B33" d="M148.622,77.752c0,0,0.407,0.467,0.821,1.147c0.219,0.338,0.443,0.729,0.658,1.146
					c0.225,0.411,0.431,0.854,0.645,1.274c0.197,0.435,0.408,0.839,0.6,1.223c0.193,0.384,0.389,0.717,0.573,1.032
					c0.097,0.149,0.202,0.269,0.291,0.405c0.09,0.135,0.187,0.227,0.269,0.315c0.164,0.178,0.273,0.305,0.273,0.305
					s-0.139,0.041-0.409,0.069c-0.133,0.009-0.312,0.038-0.487-0.012c-0.181-0.036-0.412-0.064-0.621-0.161
					c-0.205-0.096-0.457-0.196-0.67-0.35c-0.203-0.159-0.451-0.324-0.633-0.534c-0.189-0.206-0.396-0.423-0.546-0.668
					c-0.172-0.237-0.312-0.493-0.438-0.751c-0.504-1.042-0.676-2.166-0.612-3.018C148.367,78.326,148.623,77.752,148.622,77.752z"/>
			</g>
		</g>
		<path fill="none" stroke="#000000" stroke-miterlimit="10" d="M125.694,46.92"/>
	</g>
</g>
</svg>
