<?xml version="1.0" encoding="utf-8"?>
<!-- Generator: Adobe Illustrator 16.0.0, SVG Export Plug-In . SVG Version: 6.00 Build 0)  -->
<!DOCTYPE svg PUBLIC "-//W3C//DTD SVG 1.1//EN" "http://www.w3.org/Graphics/SVG/1.1/DTD/svg11.dtd">
<svg version="1.1" id="Layer_1" xmlns="http://www.w3.org/2000/svg" xmlns:xlink="http://www.w3.org/1999/xlink" x="0px" y="0px"
	 width="56.004px" height="53.795px" viewBox="0 0 56.004 53.795" enable-background="new 0 0 56.004 53.795" xml:space="preserve">
<g>
	<path fill="#CA3927" stroke="#212424" stroke-miterlimit="10" d="M10.117,36.728c0,0-5.125,8.148-5.471,10.662
		c0,0-1.315-2.854,0.277-11.434s-0.277,0-0.277,0S8.524,17.26,9.493,15.22c0.97-2.041,3.462-5.016,3.809-5.355
		c0.347-0.34,13.939-11.911,25.004-8.85c0,0,7.917,4.817,13.941,21.054c0,0-19.572-9.077-29.605-5.328
		c-10.033,3.749-10.31,7.622-11.487,12.019C9.978,33.157,9.909,35.877,10.117,36.728z"/>
	<path fill="#EAEAEA" stroke="#212424" stroke-miterlimit="10" d="M8.524,36.897c0,0,0.9,6.8,4.639,5.525
		c0,0,1.941-9.437,11.496-10.457c0,0,18.714-5.348,27.561,10.118c0.093,0.163,0.185,0.329,0.276,0.497c0,0,1.88,1.031,2.706-3.134
		c0,0,1.718-16.06-3.052-19.105c0,0-16.373-16.36-34.363-4.621C17.788,15.722,5.616,22.445,8.524,36.897z"/>
	<ellipse fill="#EAEAEA" stroke="#212424" stroke-miterlimit="10" cx="4.135" cy="48.832" rx="3.635" ry="4.463"/>
</g>
</svg>
